<svg width="54" height="57" viewBox="0 0 54 57" fill="none" xmlns="http://www.w3.org/2000/svg">
<path fill-rule="evenodd" clip-rule="evenodd" d="M14.1179 55.4534C14.2295 53.4538 14.4324 49.8199 13.1846 46.4227C11.7271 45.2799 10.4449 44.466 9.30334 43.7413C4.86014 40.9209 2.54769 39.4531 0.32865 25.2079C-2.46051 7.30283 13.1364 2.49328 23.1668 1.27978C33.1972 0.0662782 49.6121 -1.59873 52.7577 18.8647C55.8988 39.2996 48.4679 42.1485 42.44 44.4595L42.4148 44.4691C36.3824 46.7819 27.2932 48.3078 27.2932 48.3078C27.2932 48.3078 14.5906 57.173 14.1675 56.9916C14.0352 56.9349 14.0671 56.3634 14.1179 55.4534ZM15.3728 28.3487C17.1213 28.1372 18.3819 26.6697 18.1885 25.0711C17.9951 23.4725 16.4209 22.348 14.6724 22.5596C12.9239 22.7711 11.6632 24.2386 11.8566 25.8372C12.0501 27.4358 13.6243 28.5603 15.3728 28.3487ZM30.3096 23.6043C30.503 25.2029 29.2424 26.6704 27.4939 26.8819C25.7454 27.0935 24.1711 25.969 23.9777 24.3704C23.7843 22.7718 25.045 21.3043 26.7935 21.0928C28.542 20.8812 30.1162 22.0057 30.3096 23.6043ZM39.615 25.4156C41.3635 25.2041 42.6241 23.7366 42.4307 22.138C42.2373 20.5394 40.6631 19.4149 38.9146 19.6265C37.1661 19.838 35.9054 21.3054 36.0988 22.9041C36.2922 24.5027 37.8665 25.6272 39.615 25.4156Z" fill="white"/>
<path fill-rule="evenodd" clip-rule="evenodd" d="M14.1179 55.4534C14.2295 53.4538 14.4324 49.8199 13.1846 46.4227C11.7271 45.2799 10.4449 44.466 9.30334 43.7413C4.86014 40.9209 2.54769 39.4531 0.32865 25.2079C-2.46051 7.30283 13.1364 2.49328 23.1668 1.27978C33.1972 0.0662782 49.6121 -1.59873 52.7577 18.8647C55.8988 39.2996 48.4679 42.1485 42.44 44.4595L42.4148 44.4691C36.3824 46.7819 27.2932 48.3078 27.2932 48.3078C27.2932 48.3078 14.5906 57.173 14.1675 56.9916C14.0352 56.9349 14.0671 56.3634 14.1179 55.4534ZM15.3728 28.3487C17.1213 28.1372 18.3819 26.6697 18.1885 25.0711C17.9951 23.4725 16.4209 22.348 14.6724 22.5596C12.9239 22.7711 11.6632 24.2386 11.8566 25.8372C12.0501 27.4358 13.6243 28.5603 15.3728 28.3487ZM30.3096 23.6043C30.503 25.2029 29.2424 26.6704 27.4939 26.8819C25.7454 27.0935 24.1711 25.969 23.9777 24.3704C23.7843 22.7718 25.045 21.3043 26.7935 21.0928C28.542 20.8812 30.1162 22.0057 30.3096 23.6043ZM39.615 25.4156C41.3635 25.2041 42.6241 23.7366 42.4307 22.138C42.2373 20.5394 40.6631 19.4149 38.9146 19.6265C37.1661 19.838 35.9054 21.3054 36.0988 22.9041C36.2922 24.5027 37.8665 25.6272 39.615 25.4156Z" fill="#4A18C1"/>
<path fill-rule="evenodd" clip-rule="evenodd" d="M14.1179 55.4534C14.2295 53.4538 14.4324 49.8199 13.1846 46.4227C11.7271 45.2799 10.4449 44.466 9.30334 43.7413C4.86014 40.9209 2.54769 39.4531 0.32865 25.2079C-2.46051 7.30283 13.1364 2.49328 23.1668 1.27978C33.1972 0.0662782 49.6121 -1.59873 52.7577 18.8647C55.8988 39.2996 48.4679 42.1485 42.44 44.4595L42.4148 44.4691C36.3824 46.7819 27.2932 48.3078 27.2932 48.3078C27.2932 48.3078 14.5906 57.173 14.1675 56.9916C14.0352 56.9349 14.0671 56.3634 14.1179 55.4534ZM15.3728 28.3487C17.1213 28.1372 18.3819 26.6697 18.1885 25.0711C17.9951 23.4725 16.4209 22.348 14.6724 22.5596C12.9239 22.7711 11.6632 24.2386 11.8566 25.8372C12.0501 27.4358 13.6243 28.5603 15.3728 28.3487ZM30.3096 23.6043C30.503 25.2029 29.2424 26.6704 27.4939 26.8819C25.7454 27.0935 24.1711 25.969 23.9777 24.3704C23.7843 22.7718 25.045 21.3043 26.7935 21.0928C28.542 20.8812 30.1162 22.0057 30.3096 23.6043ZM39.615 25.4156C41.3635 25.2041 42.6241 23.7366 42.4307 22.138C42.2373 20.5394 40.6631 19.4149 38.9146 19.6265C37.1661 19.838 35.9054 21.3054 36.0988 22.9041C36.2922 24.5027 37.8665 25.6272 39.615 25.4156Z" fill="white"/>
</svg>
