<svg width="60" height="71" viewBox="0 0 60 71" fill="none" xmlns="http://www.w3.org/2000/svg">
<path d="M19.4382 42.4577C18.1093 41.0188 16.2532 40.2264 14.2045 40.2264C12.1449 40.2264 10.2827 41.014 8.95994 42.444C7.62283 43.8897 6.97135 45.8546 7.12432 47.9763C7.42753 52.1621 10.6037 55.5673 14.2045 55.5673C17.8054 55.5673 20.9761 52.1628 21.2841 47.9777C21.4391 45.8752 20.7835 43.9144 19.4382 42.4577ZM26.2234 70.9081H2.18565C1.87101 70.9122 1.55942 70.8459 1.27355 70.714C0.987676 70.5822 0.734706 70.3881 0.533046 70.1458C0.0891666 69.6137 -0.0897512 68.8871 0.0427299 68.1522C0.619091 64.9457 2.41783 62.2522 5.245 60.3613C7.75668 58.6827 10.9383 57.7588 14.2045 57.7588C17.4708 57.7588 20.6524 58.6834 23.1641 60.3613C25.9913 62.2515 27.79 64.945 28.3664 68.1515C28.4988 68.8864 28.3199 69.613 27.8761 70.1452C27.6745 70.3875 27.4215 70.5818 27.1356 70.7137C26.8498 70.8457 26.5381 70.9121 26.2234 70.9081Z" fill="white"/>
<path d="M51.032 42.4577C49.7031 41.0188 47.847 40.2264 45.7983 40.2264C43.7387 40.2264 41.8764 41.014 40.5537 42.444C39.2166 43.8897 38.5651 45.8546 38.7181 47.9763C39.0213 52.1621 42.1974 55.5673 45.7983 55.5673C49.3992 55.5673 52.5699 52.1628 52.8778 47.9777C53.0329 45.8752 52.3773 43.9144 51.032 42.4577ZM57.8172 70.9081H33.7794C33.4648 70.9122 33.1532 70.8459 32.8673 70.714C32.5814 70.5822 32.3285 70.3881 32.1268 70.1458C31.6829 69.6137 31.504 68.8871 31.6365 68.1522C32.2128 64.9457 34.0116 62.2522 36.8388 60.3613C39.3504 58.6827 42.532 57.7588 45.7983 57.7588C49.0646 57.7588 52.2462 58.6834 54.7578 60.3613C57.585 62.2515 59.3838 64.945 59.9601 68.1515C60.0926 68.8864 59.9137 69.613 59.4698 70.1452C59.2682 70.3875 59.0153 70.5818 58.7294 70.7137C58.4435 70.8457 58.1319 70.9121 57.8172 70.9081Z" fill="white"/>
<path d="M11.6553 30.6895C11.6553 30.6955 11.6553 30.7067 11.6484 30.7222C11.651 30.7119 11.6527 30.7007 11.6553 30.6895ZM44.2779 32.1013C43.9948 32.0952 43.7153 32.0369 43.4534 31.9294L38.572 30.1997L38.5359 30.1851C38.4294 30.1408 38.3151 30.1186 38.1997 30.1198C38.0934 30.1199 37.988 30.1391 37.8885 30.1765C37.7699 30.2212 36.7013 30.6225 35.5802 30.9301C34.9724 31.0968 32.8566 31.6407 31.1587 31.6407C26.8189 31.6407 22.7611 29.9737 19.734 26.9465C18.2552 25.4776 17.0827 23.7301 16.2842 21.8051C15.4857 19.8802 15.0771 17.8161 15.0821 15.7322C15.0821 14.6465 15.1991 13.5638 15.4312 12.5031C16.1869 9.01276 18.1883 5.83776 21.0666 3.56671C24.0191 1.25187 27.6641 -0.00455198 31.4166 -0.00096892C35.9052 -0.00096892 40.0877 1.71757 43.1947 4.8264C46.1314 7.77111 47.7408 11.643 47.7279 15.7279C47.7254 18.7634 46.8185 21.7293 45.123 24.2476L45.1067 24.2716L45.043 24.3576C45.0284 24.3773 45.0138 24.3962 45.0001 24.416L44.9872 24.4392C44.953 24.4973 44.922 24.5573 44.8943 24.6188L46.2475 29.4255C46.3073 29.6238 46.3397 29.8294 46.3438 30.0365C46.3441 30.3077 46.2909 30.5764 46.1872 30.827C46.0835 31.0777 45.9314 31.3055 45.7395 31.4973C45.5476 31.6891 45.3197 31.8412 45.0689 31.9448C44.8181 32.0485 44.5493 32.1016 44.2779 32.1013Z" fill="white"/>
<path d="M32.2481 33.9342C32.1588 33.7611 32.0331 33.6093 31.8796 33.489C31.7261 33.3687 31.5483 33.2827 31.3585 33.2368C30.8588 33.1051 30.2761 33.1275 29.8309 33.0948C25.6269 32.8037 21.6709 31.0071 18.694 28.037C16.0474 25.4164 14.3274 22.0105 13.7929 18.3322C13.6719 17.4937 13.6719 17.2854 13.6719 17.2854C13.6719 17.0056 13.5863 16.7325 13.4265 16.5024C13.2667 16.2722 13.0404 16.096 12.7776 15.9971C12.5148 15.8982 12.228 15.8814 11.9553 15.9488C11.6826 16.0162 11.437 16.1647 11.2512 16.3745C11.2512 16.3745 10.57 17.1132 10.2484 17.8544C9.34638 19.9239 8.96172 22.1803 9.12735 24.4302C9.29297 26.6802 10.0039 28.8566 11.1993 30.773C11.4241 31.1457 11.4241 31.3179 11.374 31.7053C11.138 32.92 10.7247 35.0628 10.5094 36.1742C10.4382 36.5346 10.4647 36.9074 10.5863 37.2543C10.7078 37.6011 10.92 37.9094 11.2011 38.1474L11.2408 38.1809C11.6126 38.4749 12.0733 38.6351 12.548 38.6355C12.815 38.6357 13.0795 38.5833 13.3261 38.4814L17.9522 36.7036C18.1115 36.6434 18.2874 36.6434 18.4467 36.7036C20.2683 37.3786 22.1642 37.7367 23.9607 37.7367C26.1991 37.7388 28.4104 37.2491 30.4369 36.3025C30.9089 36.0821 31.6472 35.8427 32.0795 35.3451C32.2431 35.1521 32.3463 34.9156 32.3762 34.6648C32.4062 34.414 32.3616 34.16 32.2481 33.9342Z" fill="#6100DC"/>
<ellipse cx="23.1836" cy="15.9081" rx="2.5" ry="2.5" fill="#6100DC"/>
<ellipse cx="31.5898" cy="15.9081" rx="2.5" ry="2.5" fill="#6100DC"/>
<ellipse cx="40.2266" cy="15.9081" rx="2.5" ry="2.5" fill="#6100DC"/>
</svg>
