<svg width="59" height="60" viewBox="0 0 59 60" fill="none" xmlns="http://www.w3.org/2000/svg">
<path d="M3.57083 28.9333L3.70417 29.2C4.2375 30.25 5.75417 30.25 6.2875 29.2L6.42083 28.9333C6.97083 27.85 7.85417 26.9833 8.9375 26.4167L9.20417 26.2833C10.2542 25.75 10.2542 24.2333 9.20417 23.7L8.9375 23.5667C7.85417 23.0167 6.9875 22.1333 6.42083 21.05L6.2875 20.7833C5.75417 19.7333 4.2375 19.7333 3.70417 20.7833L3.57083 21.05C3.02083 22.1333 2.1375 23 1.05417 23.5667L0.7875 23.7C-0.2625 24.2333 -0.2625 25.75 0.7875 26.2833L1.05417 26.4167C2.1375 26.9667 3.00417 27.85 3.57083 28.9333Z" fill="white"/>
<path d="M3.57083 28.9333L3.70417 29.2C4.2375 30.25 5.75417 30.25 6.2875 29.2L6.42083 28.9333C6.97083 27.85 7.85417 26.9833 8.9375 26.4167L9.20417 26.2833C10.2542 25.75 10.2542 24.2333 9.20417 23.7L8.9375 23.5667C7.85417 23.0167 6.9875 22.1333 6.42083 21.05L6.2875 20.7833C5.75417 19.7333 4.2375 19.7333 3.70417 20.7833L3.57083 21.05C3.02083 22.1333 2.1375 23 1.05417 23.5667L0.7875 23.7C-0.2625 24.2333 -0.2625 25.75 0.7875 26.2833L1.05417 26.4167C2.1375 26.9667 3.00417 27.85 3.57083 28.9333Z" fill="#4A18C1"/>
<path d="M3.57083 28.9333L3.70417 29.2C4.2375 30.25 5.75417 30.25 6.2875 29.2L6.42083 28.9333C6.97083 27.85 7.85417 26.9833 8.9375 26.4167L9.20417 26.2833C10.2542 25.75 10.2542 24.2333 9.20417 23.7L8.9375 23.5667C7.85417 23.0167 6.9875 22.1333 6.42083 21.05L6.2875 20.7833C5.75417 19.7333 4.2375 19.7333 3.70417 20.7833L3.57083 21.05C3.02083 22.1333 2.1375 23 1.05417 23.5667L0.7875 23.7C-0.2625 24.2333 -0.2625 25.75 0.7875 26.2833L1.05417 26.4167C2.1375 26.9667 3.00417 27.85 3.57083 28.9333Z" fill="white"/>
<path d="M6.45417 11.5333L6.95417 11.7833C8.9375 12.8 10.5375 14.4 11.5542 16.3833L11.8042 16.8833C12.7875 18.8167 15.5542 18.8167 16.5375 16.8833L16.7875 16.3833C17.8042 14.4 19.4042 12.8 21.3875 11.7833L21.8875 11.5333C23.8208 10.55 23.8208 7.78333 21.8875 6.8L21.3875 6.55C19.4042 5.53333 17.8042 3.93333 16.7875 1.95L16.5375 1.45C15.5542 -0.483333 12.7875 -0.483333 11.8042 1.45L11.5542 1.95C10.5375 3.93333 8.9375 5.53333 6.95417 6.55L6.45417 6.8C4.52083 7.78333 4.52083 10.55 6.45417 11.5333Z" fill="white"/>
<path d="M6.45417 11.5333L6.95417 11.7833C8.9375 12.8 10.5375 14.4 11.5542 16.3833L11.8042 16.8833C12.7875 18.8167 15.5542 18.8167 16.5375 16.8833L16.7875 16.3833C17.8042 14.4 19.4042 12.8 21.3875 11.7833L21.8875 11.5333C23.8208 10.55 23.8208 7.78333 21.8875 6.8L21.3875 6.55C19.4042 5.53333 17.8042 3.93333 16.7875 1.95L16.5375 1.45C15.5542 -0.483333 12.7875 -0.483333 11.8042 1.45L11.5542 1.95C10.5375 3.93333 8.9375 5.53333 6.95417 6.55L6.45417 6.8C4.52083 7.78333 4.52083 10.55 6.45417 11.5333Z" fill="#4A18C1"/>
<path d="M6.45417 11.5333L6.95417 11.7833C8.9375 12.8 10.5375 14.4 11.5542 16.3833L11.8042 16.8833C12.7875 18.8167 15.5542 18.8167 16.5375 16.8833L16.7875 16.3833C17.8042 14.4 19.4042 12.8 21.3875 11.7833L21.8875 11.5333C23.8208 10.55 23.8208 7.78333 21.8875 6.8L21.3875 6.55C19.4042 5.53333 17.8042 3.93333 16.7875 1.95L16.5375 1.45C15.5542 -0.483333 12.7875 -0.483333 11.8042 1.45L11.5542 1.95C10.5375 3.93333 8.9375 5.53333 6.95417 6.55L6.45417 6.8C4.52083 7.78333 4.52083 10.55 6.45417 11.5333Z" fill="white"/>
<path d="M53.5542 48.4667L53.0542 48.2167C51.0708 47.2 49.4708 45.6 48.4542 43.6167L48.2042 43.1167C47.2208 41.1833 44.4542 41.1833 43.4708 43.1167L43.2208 43.6167C42.2042 45.6 40.6042 47.2 38.6208 48.2167L38.1208 48.4667C36.1875 49.45 36.1875 52.2167 38.1208 53.2L38.6208 53.45C40.6042 54.4667 42.2042 56.0667 43.2208 58.05L43.4708 58.55C44.4542 60.4833 47.2208 60.4833 48.2042 58.55L48.4542 58.05C49.4708 56.0667 51.0708 54.4667 53.0542 53.45L53.5542 53.2C55.4875 52.2167 55.4875 49.45 53.5542 48.4667Z" fill="white"/>
<path d="M53.5542 48.4667L53.0542 48.2167C51.0708 47.2 49.4708 45.6 48.4542 43.6167L48.2042 43.1167C47.2208 41.1833 44.4542 41.1833 43.4708 43.1167L43.2208 43.6167C42.2042 45.6 40.6042 47.2 38.6208 48.2167L38.1208 48.4667C36.1875 49.45 36.1875 52.2167 38.1208 53.2L38.6208 53.45C40.6042 54.4667 42.2042 56.0667 43.2208 58.05L43.4708 58.55C44.4542 60.4833 47.2208 60.4833 48.2042 58.55L48.4542 58.05C49.4708 56.0667 51.0708 54.4667 53.0542 53.45L53.5542 53.2C55.4875 52.2167 55.4875 49.45 53.5542 48.4667Z" fill="#4A18C1"/>
<path d="M53.5542 48.4667L53.0542 48.2167C51.0708 47.2 49.4708 45.6 48.4542 43.6167L48.2042 43.1167C47.2208 41.1833 44.4542 41.1833 43.4708 43.1167L43.2208 43.6167C42.2042 45.6 40.6042 47.2 38.6208 48.2167L38.1208 48.4667C36.1875 49.45 36.1875 52.2167 38.1208 53.2L38.6208 53.45C40.6042 54.4667 42.2042 56.0667 43.2208 58.05L43.4708 58.55C44.4542 60.4833 47.2208 60.4833 48.2042 58.55L48.4542 58.05C49.4708 56.0667 51.0708 54.4667 53.0542 53.45L53.5542 53.2C55.4875 52.2167 55.4875 49.45 53.5542 48.4667Z" fill="white"/>
<path d="M56.5208 19.1333L54.6542 16.7833L55.7208 13.8667C56.7375 11.1 56.0708 8.08333 53.9875 6C51.9042 3.91667 48.8875 3.25 46.1208 4.26667L43.2042 5.33333L40.8542 3.46667C38.5208 1.61667 35.4208 1.3 32.7708 2.66667C30.1208 4.03333 28.5708 6.71667 28.7042 9.7L28.8375 12.5667L26.3875 14.1833C23.9208 15.8167 22.6708 18.65 23.1208 21.5667C23.2708 22.5667 23.6208 23.4833 24.1208 24.3L2.97083 46.1667C0.0875008 49.15 0.120834 53.9667 3.05417 56.9C4.5375 58.3833 6.50417 59.1333 8.47083 59.1333C10.4375 59.1333 12.3208 58.4167 13.7875 57L35.6542 35.85C36.4708 36.35 37.3875 36.7 38.3875 36.85C38.7875 36.9167 39.1708 36.9333 39.5542 36.9333C42.0375 36.9333 44.3542 35.7 45.7708 33.5667L47.3875 31.1167L50.2542 31.25C53.2375 31.4167 55.9208 29.8333 57.2875 27.1833C58.6542 24.5333 58.3375 21.4333 56.4875 19.1L56.5208 19.1333ZM24.7542 30.8667L28.0208 27.4833C28.1708 27.5333 28.3208 27.6 28.4708 27.65L31.4875 28.5167L32.3542 31.5333C32.4042 31.6833 32.4708 31.8333 32.5208 31.9833L27.3708 36.9667L24.7542 30.8833V30.8667ZM23.5208 40.6667L18.9542 45.0833L16.5208 39.3833L21.0042 34.75L23.5375 40.6667H23.5208ZM10.3375 53.4167C9.30417 54.4167 7.62083 54.4 6.60417 53.3833C5.5875 52.3667 5.57083 50.7 6.57083 49.65L12.7208 43.2833L15.0875 48.8L10.3208 53.4L10.3375 53.4167ZM52.8708 24.9333C52.7042 25.2667 52.0042 26.35 50.5375 26.2833L47.5375 26.1333C45.8708 26.05 44.2542 26.8667 43.3208 28.2667L41.6208 30.8333C40.8042 32.0667 39.5375 31.9833 39.1708 31.9167C38.8042 31.8667 37.5708 31.5667 37.1542 30.15L36.2542 27.0167C35.8042 25.4167 34.5708 24.2 32.9875 23.75L29.8542 22.85C28.4375 22.45 28.1375 21.2167 28.0875 20.8333C28.0375 20.45 27.9375 19.2 29.1708 18.3833L31.7375 16.6833C33.1375 15.7667 33.9542 14.15 33.8708 12.4667L33.7208 9.46667C33.6542 7.98333 34.7375 7.3 35.0708 7.13333C35.2542 7.03333 35.6875 6.85 36.2375 6.85C36.6875 6.85 37.2208 6.98333 37.7542 7.4L40.2042 9.35C41.4875 10.3667 43.2542 10.6667 44.8042 10.1L47.8375 8.98333C49.2208 8.48333 50.1875 9.3 50.4542 9.56667C50.7208 9.83333 51.5375 10.8 51.0375 12.1833L49.9208 15.2167C49.3542 16.7667 49.6375 18.5333 50.6708 19.8167L52.6208 22.2667C53.5542 23.4333 53.0542 24.6167 52.8875 24.95L52.8708 24.9333Z" fill="white"/>
<path d="M56.5208 19.1333L54.6542 16.7833L55.7208 13.8667C56.7375 11.1 56.0708 8.08333 53.9875 6C51.9042 3.91667 48.8875 3.25 46.1208 4.26667L43.2042 5.33333L40.8542 3.46667C38.5208 1.61667 35.4208 1.3 32.7708 2.66667C30.1208 4.03333 28.5708 6.71667 28.7042 9.7L28.8375 12.5667L26.3875 14.1833C23.9208 15.8167 22.6708 18.65 23.1208 21.5667C23.2708 22.5667 23.6208 23.4833 24.1208 24.3L2.97083 46.1667C0.0875008 49.15 0.120834 53.9667 3.05417 56.9C4.5375 58.3833 6.50417 59.1333 8.47083 59.1333C10.4375 59.1333 12.3208 58.4167 13.7875 57L35.6542 35.85C36.4708 36.35 37.3875 36.7 38.3875 36.85C38.7875 36.9167 39.1708 36.9333 39.5542 36.9333C42.0375 36.9333 44.3542 35.7 45.7708 33.5667L47.3875 31.1167L50.2542 31.25C53.2375 31.4167 55.9208 29.8333 57.2875 27.1833C58.6542 24.5333 58.3375 21.4333 56.4875 19.1L56.5208 19.1333ZM24.7542 30.8667L28.0208 27.4833C28.1708 27.5333 28.3208 27.6 28.4708 27.65L31.4875 28.5167L32.3542 31.5333C32.4042 31.6833 32.4708 31.8333 32.5208 31.9833L27.3708 36.9667L24.7542 30.8833V30.8667ZM23.5208 40.6667L18.9542 45.0833L16.5208 39.3833L21.0042 34.75L23.5375 40.6667H23.5208ZM10.3375 53.4167C9.30417 54.4167 7.62083 54.4 6.60417 53.3833C5.5875 52.3667 5.57083 50.7 6.57083 49.65L12.7208 43.2833L15.0875 48.8L10.3208 53.4L10.3375 53.4167ZM52.8708 24.9333C52.7042 25.2667 52.0042 26.35 50.5375 26.2833L47.5375 26.1333C45.8708 26.05 44.2542 26.8667 43.3208 28.2667L41.6208 30.8333C40.8042 32.0667 39.5375 31.9833 39.1708 31.9167C38.8042 31.8667 37.5708 31.5667 37.1542 30.15L36.2542 27.0167C35.8042 25.4167 34.5708 24.2 32.9875 23.75L29.8542 22.85C28.4375 22.45 28.1375 21.2167 28.0875 20.8333C28.0375 20.45 27.9375 19.2 29.1708 18.3833L31.7375 16.6833C33.1375 15.7667 33.9542 14.15 33.8708 12.4667L33.7208 9.46667C33.6542 7.98333 34.7375 7.3 35.0708 7.13333C35.2542 7.03333 35.6875 6.85 36.2375 6.85C36.6875 6.85 37.2208 6.98333 37.7542 7.4L40.2042 9.35C41.4875 10.3667 43.2542 10.6667 44.8042 10.1L47.8375 8.98333C49.2208 8.48333 50.1875 9.3 50.4542 9.56667C50.7208 9.83333 51.5375 10.8 51.0375 12.1833L49.9208 15.2167C49.3542 16.7667 49.6375 18.5333 50.6708 19.8167L52.6208 22.2667C53.5542 23.4333 53.0542 24.6167 52.8875 24.95L52.8708 24.9333Z" fill="#4A18C1"/>
<path d="M56.5208 19.1333L54.6542 16.7833L55.7208 13.8667C56.7375 11.1 56.0708 8.08333 53.9875 6C51.9042 3.91667 48.8875 3.25 46.1208 4.26667L43.2042 5.33333L40.8542 3.46667C38.5208 1.61667 35.4208 1.3 32.7708 2.66667C30.1208 4.03333 28.5708 6.71667 28.7042 9.7L28.8375 12.5667L26.3875 14.1833C23.9208 15.8167 22.6708 18.65 23.1208 21.5667C23.2708 22.5667 23.6208 23.4833 24.1208 24.3L2.97083 46.1667C0.0875008 49.15 0.120834 53.9667 3.05417 56.9C4.5375 58.3833 6.50417 59.1333 8.47083 59.1333C10.4375 59.1333 12.3208 58.4167 13.7875 57L35.6542 35.85C36.4708 36.35 37.3875 36.7 38.3875 36.85C38.7875 36.9167 39.1708 36.9333 39.5542 36.9333C42.0375 36.9333 44.3542 35.7 45.7708 33.5667L47.3875 31.1167L50.2542 31.25C53.2375 31.4167 55.9208 29.8333 57.2875 27.1833C58.6542 24.5333 58.3375 21.4333 56.4875 19.1L56.5208 19.1333ZM24.7542 30.8667L28.0208 27.4833C28.1708 27.5333 28.3208 27.6 28.4708 27.65L31.4875 28.5167L32.3542 31.5333C32.4042 31.6833 32.4708 31.8333 32.5208 31.9833L27.3708 36.9667L24.7542 30.8833V30.8667ZM23.5208 40.6667L18.9542 45.0833L16.5208 39.3833L21.0042 34.75L23.5375 40.6667H23.5208ZM10.3375 53.4167C9.30417 54.4167 7.62083 54.4 6.60417 53.3833C5.5875 52.3667 5.57083 50.7 6.57083 49.65L12.7208 43.2833L15.0875 48.8L10.3208 53.4L10.3375 53.4167ZM52.8708 24.9333C52.7042 25.2667 52.0042 26.35 50.5375 26.2833L47.5375 26.1333C45.8708 26.05 44.2542 26.8667 43.3208 28.2667L41.6208 30.8333C40.8042 32.0667 39.5375 31.9833 39.1708 31.9167C38.8042 31.8667 37.5708 31.5667 37.1542 30.15L36.2542 27.0167C35.8042 25.4167 34.5708 24.2 32.9875 23.75L29.8542 22.85C28.4375 22.45 28.1375 21.2167 28.0875 20.8333C28.0375 20.45 27.9375 19.2 29.1708 18.3833L31.7375 16.6833C33.1375 15.7667 33.9542 14.15 33.8708 12.4667L33.7208 9.46667C33.6542 7.98333 34.7375 7.3 35.0708 7.13333C35.2542 7.03333 35.6875 6.85 36.2375 6.85C36.6875 6.85 37.2208 6.98333 37.7542 7.4L40.2042 9.35C41.4875 10.3667 43.2542 10.6667 44.8042 10.1L47.8375 8.98333C49.2208 8.48333 50.1875 9.3 50.4542 9.56667C50.7208 9.83333 51.5375 10.8 51.0375 12.1833L49.9208 15.2167C49.3542 16.7667 49.6375 18.5333 50.6708 19.8167L52.6208 22.2667C53.5542 23.4333 53.0542 24.6167 52.8875 24.95L52.8708 24.9333Z" fill="white"/>
</svg>
