<svg width="48" height="49" viewBox="0 0 48 49" fill="none" xmlns="http://www.w3.org/2000/svg">
<path d="M2.90122 23.6122L3.00955 23.8288C3.44288 24.6819 4.67513 24.6819 5.10846 23.8288L5.21679 23.6122C5.66365 22.732 6.38134 22.0279 7.26152 21.5674L7.47818 21.4591C8.33128 21.0258 8.33128 19.7935 7.47818 19.3602L7.26152 19.2519C6.38134 18.805 5.67719 18.0873 5.21679 17.2071L5.10846 16.9905C4.67513 16.1374 3.44288 16.1374 3.00955 16.9905L2.90122 17.2071C2.45436 18.0873 1.73667 18.7915 0.856488 19.2519L0.639826 19.3602C-0.213275 19.7935 -0.213275 21.0258 0.639826 21.4591L0.856488 21.5674C1.73667 22.0143 2.44082 22.732 2.90122 23.6122Z" fill="white"/>
<path d="M2.90122 23.6122L3.00955 23.8288C3.44288 24.6819 4.67513 24.6819 5.10846 23.8288L5.21679 23.6122C5.66365 22.732 6.38134 22.0279 7.26152 21.5674L7.47818 21.4591C8.33128 21.0258 8.33128 19.7935 7.47818 19.3602L7.26152 19.2519C6.38134 18.805 5.67719 18.0873 5.21679 17.2071L5.10846 16.9905C4.67513 16.1374 3.44288 16.1374 3.00955 16.9905L2.90122 17.2071C2.45436 18.0873 1.73667 18.7915 0.856488 19.2519L0.639826 19.3602C-0.213275 19.7935 -0.213275 21.0258 0.639826 21.4591L0.856488 21.5674C1.73667 22.0143 2.44082 22.732 2.90122 23.6122Z" fill="#4A18C1"/>
<path d="M2.90122 23.6122L3.00955 23.8288C3.44288 24.6819 4.67513 24.6819 5.10846 23.8288L5.21679 23.6122C5.66365 22.732 6.38134 22.0279 7.26152 21.5674L7.47818 21.4591C8.33128 21.0258 8.33128 19.7935 7.47818 19.3602L7.26152 19.2519C6.38134 18.805 5.67719 18.0873 5.21679 17.2071L5.10846 16.9905C4.67513 16.1374 3.44288 16.1374 3.00955 16.9905L2.90122 17.2071C2.45436 18.0873 1.73667 18.7915 0.856488 19.2519L0.639826 19.3602C-0.213275 19.7935 -0.213275 21.0258 0.639826 21.4591L0.856488 21.5674C1.73667 22.0143 2.44082 22.732 2.90122 23.6122Z" fill="white"/>
<path d="M5.24387 9.47507L5.65011 9.67819C7.26152 10.5042 8.56149 11.8042 9.38751 13.4156L9.59062 13.8218C10.3896 15.3926 12.6374 15.3926 13.4364 13.8218L13.6395 13.4156C14.4655 11.8042 15.7655 10.5042 17.3769 9.67819L17.7831 9.47507C19.3539 8.67613 19.3539 6.42828 17.7831 5.62934L17.3769 5.42622C15.7655 4.6002 14.4655 3.30024 13.6395 1.68882L13.4364 1.28259C12.6374 -0.288205 10.3896 -0.288205 9.59062 1.28259L9.38751 1.68882C8.56149 3.30024 7.26152 4.6002 5.65011 5.42622L5.24387 5.62934C3.67308 6.42828 3.67308 8.67613 5.24387 9.47507Z" fill="white"/>
<path d="M5.24387 9.47507L5.65011 9.67819C7.26152 10.5042 8.56149 11.8042 9.38751 13.4156L9.59062 13.8218C10.3896 15.3926 12.6374 15.3926 13.4364 13.8218L13.6395 13.4156C14.4655 11.8042 15.7655 10.5042 17.3769 9.67819L17.7831 9.47507C19.3539 8.67613 19.3539 6.42828 17.7831 5.62934L17.3769 5.42622C15.7655 4.6002 14.4655 3.30024 13.6395 1.68882L13.4364 1.28259C12.6374 -0.288205 10.3896 -0.288205 9.59062 1.28259L9.38751 1.68882C8.56149 3.30024 7.26152 4.6002 5.65011 5.42622L5.24387 5.62934C3.67308 6.42828 3.67308 8.67613 5.24387 9.47507Z" fill="#4A18C1"/>
<path d="M5.24387 9.47507L5.65011 9.67819C7.26152 10.5042 8.56149 11.8042 9.38751 13.4156L9.59062 13.8218C10.3896 15.3926 12.6374 15.3926 13.4364 13.8218L13.6395 13.4156C14.4655 11.8042 15.7655 10.5042 17.3769 9.67819L17.7831 9.47507C19.3539 8.67613 19.3539 6.42828 17.7831 5.62934L17.3769 5.42622C15.7655 4.6002 14.4655 3.30024 13.6395 1.68882L13.4364 1.28259C12.6374 -0.288205 10.3896 -0.288205 9.59062 1.28259L9.38751 1.68882C8.56149 3.30024 7.26152 4.6002 5.65011 5.42622L5.24387 5.62934C3.67308 6.42828 3.67308 8.67613 5.24387 9.47507Z" fill="white"/>
<path d="M43.5116 39.4826L43.1053 39.2795C41.4939 38.4534 40.194 37.1535 39.3679 35.5421L39.1648 35.1358C38.3659 33.565 36.118 33.565 35.3191 35.1358L35.116 35.5421C34.29 37.1535 32.99 38.4534 31.3786 39.2795L30.9723 39.4826C29.4015 40.2815 29.4015 42.5294 30.9723 43.3283L31.3786 43.5314C32.99 44.3575 34.29 45.6574 35.116 47.2688L35.3191 47.6751C36.118 49.2459 38.3659 49.2459 39.1648 47.6751L39.3679 47.2688C40.194 45.6574 41.4939 44.3575 43.1053 43.5314L43.5116 43.3283C45.0824 42.5294 45.0824 40.2815 43.5116 39.4826Z" fill="white"/>
<path d="M43.5116 39.4826L43.1053 39.2795C41.4939 38.4534 40.194 37.1535 39.3679 35.5421L39.1648 35.1358C38.3659 33.565 36.118 33.565 35.3191 35.1358L35.116 35.5421C34.29 37.1535 32.99 38.4534 31.3786 39.2795L30.9723 39.4826C29.4015 40.2815 29.4015 42.5294 30.9723 43.3283L31.3786 43.5314C32.99 44.3575 34.29 45.6574 35.116 47.2688L35.3191 47.6751C36.118 49.2459 38.3659 49.2459 39.1648 47.6751L39.3679 47.2688C40.194 45.6574 41.4939 44.3575 43.1053 43.5314L43.5116 43.3283C45.0824 42.5294 45.0824 40.2815 43.5116 39.4826Z" fill="#4A18C1"/>
<path d="M43.5116 39.4826L43.1053 39.2795C41.4939 38.4534 40.194 37.1535 39.3679 35.5421L39.1648 35.1358C38.3659 33.565 36.118 33.565 35.3191 35.1358L35.116 35.5421C34.29 37.1535 32.99 38.4534 31.3786 39.2795L30.9723 39.4826C29.4015 40.2815 29.4015 42.5294 30.9723 43.3283L31.3786 43.5314C32.99 44.3575 34.29 45.6574 35.116 47.2688L35.3191 47.6751C36.118 49.2459 38.3659 49.2459 39.1648 47.6751L39.3679 47.2688C40.194 45.6574 41.4939 44.3575 43.1053 43.5314L43.5116 43.3283C45.0824 42.5294 45.0824 40.2815 43.5116 39.4826Z" fill="white"/>
<path d="M45.9219 15.6499L44.4053 13.7406L45.2719 11.3709C46.098 9.123 45.5563 6.67202 43.8637 4.97936C42.171 3.2867 39.72 2.74505 37.4722 3.57106L35.1024 4.43771L33.1931 2.92108C31.2973 1.418 28.7786 1.16071 26.6256 2.2711C24.4725 3.38149 23.2132 5.56163 23.3215 7.98553L23.4298 10.3146L21.4393 11.6281C19.4352 12.9552 18.4196 15.2572 18.7852 17.6269C18.907 18.4394 19.1914 19.1842 19.5976 19.8477L2.41374 37.6139C0.0710925 40.0378 0.0981747 43.9512 2.48144 46.3345C3.68662 47.5397 5.28449 48.149 6.88236 48.149C8.48024 48.149 10.0104 47.5667 11.202 46.4157L28.9682 29.2318C29.6317 29.6381 30.3765 29.9224 31.189 30.0443C31.514 30.0985 31.8254 30.112 32.1369 30.112C34.1545 30.112 36.0368 29.11 37.1878 27.3767L38.5013 25.3861L40.8304 25.4944C43.2543 25.6298 45.4344 24.3434 46.5448 22.1903C47.6552 20.0373 47.3979 17.5186 45.8949 15.6228L45.9219 15.6499ZM20.1122 25.183L22.7663 22.4341C22.8882 22.4747 23.0101 22.5289 23.1319 22.5695L25.5829 23.2737L26.287 25.7246C26.3277 25.8465 26.3818 25.9684 26.4225 26.0902L22.2382 30.1391L20.1122 25.1965V25.183ZM19.1102 33.1453L15.3998 36.7337L13.4228 32.1026L17.0654 28.3381L19.1237 33.1453H19.1102ZM8.39899 43.5043C7.55943 44.3168 6.19176 44.3033 5.36574 43.4773C4.53972 42.6512 4.52618 41.2971 5.33866 40.444L10.3354 35.2712L12.2583 39.7534L8.38545 43.4908L8.39899 43.5043ZM42.9564 20.3623C42.821 20.6331 42.2522 21.5133 41.0606 21.4591L38.6232 21.3372C37.269 21.2695 35.9555 21.9331 35.1972 23.0705L33.816 25.1559C33.1525 26.1579 32.1233 26.0902 31.8254 26.0361C31.5275 25.9955 30.5255 25.7517 30.1869 24.6007L29.4557 22.0549C29.0901 20.755 28.088 19.7665 26.8016 19.4008L24.2559 18.6696C23.1048 18.3446 22.8611 17.3426 22.8205 17.0311C22.7799 16.7197 22.6986 15.7041 23.7007 15.0405L25.786 13.6593C26.9235 12.9146 27.587 11.6011 27.5193 10.2334L27.3974 7.79595C27.3433 6.59077 28.2235 6.03558 28.4943 5.90017C28.6432 5.81892 28.9953 5.66997 29.4422 5.66997C29.8078 5.66997 30.2411 5.7783 30.6744 6.11683L32.665 7.70116C33.7077 8.52718 35.1431 8.77092 36.4024 8.31052L38.8669 7.40325C39.9908 6.99701 40.7762 7.66054 40.9929 7.8772C41.2096 8.09386 41.8731 8.87925 41.4668 10.0032L40.5596 12.4677C40.0992 13.727 40.3294 15.1624 41.1689 16.2051L42.7533 18.1957C43.5116 19.1436 43.1053 20.105 42.9699 20.3758L42.9564 20.3623Z" fill="white"/>
<path d="M45.9219 15.6499L44.4053 13.7406L45.2719 11.3709C46.098 9.123 45.5563 6.67202 43.8637 4.97936C42.171 3.2867 39.72 2.74505 37.4722 3.57106L35.1024 4.43771L33.1931 2.92108C31.2973 1.418 28.7786 1.16071 26.6256 2.2711C24.4725 3.38149 23.2132 5.56163 23.3215 7.98553L23.4298 10.3146L21.4393 11.6281C19.4352 12.9552 18.4196 15.2572 18.7852 17.6269C18.907 18.4394 19.1914 19.1842 19.5976 19.8477L2.41374 37.6139C0.0710925 40.0378 0.0981747 43.9512 2.48144 46.3345C3.68662 47.5397 5.28449 48.149 6.88236 48.149C8.48024 48.149 10.0104 47.5667 11.202 46.4157L28.9682 29.2318C29.6317 29.6381 30.3765 29.9224 31.189 30.0443C31.514 30.0985 31.8254 30.112 32.1369 30.112C34.1545 30.112 36.0368 29.11 37.1878 27.3767L38.5013 25.3861L40.8304 25.4944C43.2543 25.6298 45.4344 24.3434 46.5448 22.1903C47.6552 20.0373 47.3979 17.5186 45.8949 15.6228L45.9219 15.6499ZM20.1122 25.183L22.7663 22.4341C22.8882 22.4747 23.0101 22.5289 23.1319 22.5695L25.5829 23.2737L26.287 25.7246C26.3277 25.8465 26.3818 25.9684 26.4225 26.0902L22.2382 30.1391L20.1122 25.1965V25.183ZM19.1102 33.1453L15.3998 36.7337L13.4228 32.1026L17.0654 28.3381L19.1237 33.1453H19.1102ZM8.39899 43.5043C7.55943 44.3168 6.19176 44.3033 5.36574 43.4773C4.53972 42.6512 4.52618 41.2971 5.33866 40.444L10.3354 35.2712L12.2583 39.7534L8.38545 43.4908L8.39899 43.5043ZM42.9564 20.3623C42.821 20.6331 42.2522 21.5133 41.0606 21.4591L38.6232 21.3372C37.269 21.2695 35.9555 21.9331 35.1972 23.0705L33.816 25.1559C33.1525 26.1579 32.1233 26.0902 31.8254 26.0361C31.5275 25.9955 30.5255 25.7517 30.1869 24.6007L29.4557 22.0549C29.0901 20.755 28.088 19.7665 26.8016 19.4008L24.2559 18.6696C23.1048 18.3446 22.8611 17.3426 22.8205 17.0311C22.7799 16.7197 22.6986 15.7041 23.7007 15.0405L25.786 13.6593C26.9235 12.9146 27.587 11.6011 27.5193 10.2334L27.3974 7.79595C27.3433 6.59077 28.2235 6.03558 28.4943 5.90017C28.6432 5.81892 28.9953 5.66997 29.4422 5.66997C29.8078 5.66997 30.2411 5.7783 30.6744 6.11683L32.665 7.70116C33.7077 8.52718 35.1431 8.77092 36.4024 8.31052L38.8669 7.40325C39.9908 6.99701 40.7762 7.66054 40.9929 7.8772C41.2096 8.09386 41.8731 8.87925 41.4668 10.0032L40.5596 12.4677C40.0992 13.727 40.3294 15.1624 41.1689 16.2051L42.7533 18.1957C43.5116 19.1436 43.1053 20.105 42.9699 20.3758L42.9564 20.3623Z" fill="#4A18C1"/>
<path d="M45.9219 15.6499L44.4053 13.7406L45.2719 11.3709C46.098 9.123 45.5563 6.67202 43.8637 4.97936C42.171 3.2867 39.72 2.74505 37.4722 3.57106L35.1024 4.43771L33.1931 2.92108C31.2973 1.418 28.7786 1.16071 26.6256 2.2711C24.4725 3.38149 23.2132 5.56163 23.3215 7.98553L23.4298 10.3146L21.4393 11.6281C19.4352 12.9552 18.4196 15.2572 18.7852 17.6269C18.907 18.4394 19.1914 19.1842 19.5976 19.8477L2.41374 37.6139C0.0710925 40.0378 0.0981747 43.9512 2.48144 46.3345C3.68662 47.5397 5.28449 48.149 6.88236 48.149C8.48024 48.149 10.0104 47.5667 11.202 46.4157L28.9682 29.2318C29.6317 29.6381 30.3765 29.9224 31.189 30.0443C31.514 30.0985 31.8254 30.112 32.1369 30.112C34.1545 30.112 36.0368 29.11 37.1878 27.3767L38.5013 25.3861L40.8304 25.4944C43.2543 25.6298 45.4344 24.3434 46.5448 22.1903C47.6552 20.0373 47.3979 17.5186 45.8949 15.6228L45.9219 15.6499ZM20.1122 25.183L22.7663 22.4341C22.8882 22.4747 23.0101 22.5289 23.1319 22.5695L25.5829 23.2737L26.287 25.7246C26.3277 25.8465 26.3818 25.9684 26.4225 26.0902L22.2382 30.1391L20.1122 25.1965V25.183ZM19.1102 33.1453L15.3998 36.7337L13.4228 32.1026L17.0654 28.3381L19.1237 33.1453H19.1102ZM8.39899 43.5043C7.55943 44.3168 6.19176 44.3033 5.36574 43.4773C4.53972 42.6512 4.52618 41.2971 5.33866 40.444L10.3354 35.2712L12.2583 39.7534L8.38545 43.4908L8.39899 43.5043ZM42.9564 20.3623C42.821 20.6331 42.2522 21.5133 41.0606 21.4591L38.6232 21.3372C37.269 21.2695 35.9555 21.9331 35.1972 23.0705L33.816 25.1559C33.1525 26.1579 32.1233 26.0902 31.8254 26.0361C31.5275 25.9955 30.5255 25.7517 30.1869 24.6007L29.4557 22.0549C29.0901 20.755 28.088 19.7665 26.8016 19.4008L24.2559 18.6696C23.1048 18.3446 22.8611 17.3426 22.8205 17.0311C22.7799 16.7197 22.6986 15.7041 23.7007 15.0405L25.786 13.6593C26.9235 12.9146 27.587 11.6011 27.5193 10.2334L27.3974 7.79595C27.3433 6.59077 28.2235 6.03558 28.4943 5.90017C28.6432 5.81892 28.9953 5.66997 29.4422 5.66997C29.8078 5.66997 30.2411 5.7783 30.6744 6.11683L32.665 7.70116C33.7077 8.52718 35.1431 8.77092 36.4024 8.31052L38.8669 7.40325C39.9908 6.99701 40.7762 7.66054 40.9929 7.8772C41.2096 8.09386 41.8731 8.87925 41.4668 10.0032L40.5596 12.4677C40.0992 13.727 40.3294 15.1624 41.1689 16.2051L42.7533 18.1957C43.5116 19.1436 43.1053 20.105 42.9699 20.3758L42.9564 20.3623Z" fill="white"/>
</svg>
