<svg width="59" height="60" viewBox="0 0 59 60" fill="none" xmlns="http://www.w3.org/2000/svg">
<path d="M3.57402 28.9324L3.70748 29.1991C4.24129 30.2491 5.75931 30.2491 6.29312 29.1991L6.42657 28.9324C6.97706 27.8491 7.86118 26.9824 8.94548 26.4157L9.21239 26.2824C10.2633 25.7491 10.2633 24.2324 9.21239 23.6991L8.94548 23.5657C7.86118 23.0157 6.99374 22.1324 6.42657 21.0491L6.29312 20.7824C5.75931 19.7324 4.24129 19.7324 3.70748 20.7824L3.57402 21.0491C3.02353 22.1324 2.13941 22.9991 1.05511 23.5657L0.788204 23.6991C-0.262734 24.2324 -0.262734 25.7491 0.788204 26.2824L1.05511 26.4157C2.13941 26.9657 3.00685 27.8491 3.57402 28.9324Z" fill="white"/>
<path d="M6.45993 11.5324L6.96038 11.7824C8.94549 12.7991 10.5469 14.3991 11.5645 16.3824L11.8147 16.8824C12.7989 18.8157 15.5681 18.8157 16.5523 16.8824L16.8025 16.3824C17.8201 14.3991 19.4215 12.7991 21.4066 11.7824L21.9071 11.5324C23.8421 10.549 23.8421 7.78237 21.9071 6.79904L21.4066 6.54904C19.4215 5.53237 17.8201 3.93237 16.8025 1.94903L16.5523 1.44903C15.5681 -0.484311 12.7989 -0.484311 11.8147 1.44903L11.5645 1.94903C10.5469 3.93237 8.94549 5.53237 6.96038 6.54904L6.45993 6.79904C4.52487 7.78237 4.52487 10.549 6.45993 11.5324Z" fill="white"/>
<path d="M56.5713 19.1324L54.703 16.7824L55.7706 13.8657C56.7882 11.099 56.1209 8.08237 54.0357 5.99904C51.9505 3.9157 48.9312 3.24903 46.162 4.2657L43.2428 5.33237L40.8907 3.4657C38.5553 1.61569 35.4525 1.29903 32.8001 2.6657C30.1477 4.03237 28.5964 6.7157 28.7298 9.69904L28.8633 12.5657L26.4111 14.1824C23.9422 15.8157 22.6911 18.6491 23.1415 21.5657C23.2916 22.5657 23.6419 23.4824 24.1424 24.2991L2.97349 46.1658C0.087579 49.1491 0.120942 53.9658 3.0569 56.8991C4.54155 58.3825 6.50998 59.1325 8.4784 59.1325C10.4468 59.1325 12.3318 58.4158 13.7998 56.9991L35.686 35.8491C36.5034 36.3491 37.4209 36.6991 38.4218 36.8491C38.8222 36.9158 39.2058 36.9324 39.5895 36.9324C42.0751 36.9324 44.3938 35.6991 45.8117 33.5658L47.4298 31.1158L50.2991 31.2491C53.2851 31.4158 55.9708 29.8324 57.3387 27.1824C58.7066 24.5324 58.3896 21.4324 56.538 19.0991L56.5713 19.1324ZM24.7763 30.8658L28.0459 27.4824C28.196 27.5324 28.3461 27.5991 28.4963 27.6491L31.5156 28.5158L32.3831 31.5324C32.4331 31.6824 32.4998 31.8324 32.5499 31.9824L27.3953 36.9658L24.7763 30.8824V30.8658ZM23.5418 40.6658L18.9711 45.0825L16.5356 39.3824L21.0229 34.7491L23.5585 40.6658H23.5418ZM10.3467 53.4158C9.31248 54.4158 7.62764 54.3991 6.61007 53.3825C5.59249 52.3658 5.57581 50.6991 6.5767 49.6491L12.7322 43.2824L15.101 48.7991L10.3301 53.3991L10.3467 53.4158ZM52.9181 24.9324C52.7513 25.2657 52.0506 26.3491 50.5827 26.2824L47.58 26.1324C45.9118 26.0491 44.2937 26.8657 43.3595 28.2657L41.658 30.8324C40.8406 32.0658 39.5728 31.9824 39.2058 31.9158C38.8388 31.8658 37.6044 31.5658 37.1874 30.1491L36.2866 27.0157C35.8362 25.4157 34.6017 24.1991 33.017 23.7491L29.8808 22.8491C28.4629 22.4491 28.1626 21.2157 28.1126 20.8324C28.0626 20.4491 27.9625 19.1991 29.1969 18.3824L31.7659 16.6824C33.1671 15.7657 33.9845 14.1491 33.9011 12.4657L33.751 9.46571C33.6842 7.98237 34.7685 7.29904 35.1022 7.13237C35.2857 7.03237 35.7194 6.84904 36.2699 6.84904C36.7203 6.84904 37.2541 6.98237 37.7879 7.39904L40.2401 9.34904C41.5246 10.3657 43.2928 10.6657 44.8442 10.099L47.8802 8.98238C49.2648 8.48238 50.2323 9.29904 50.4992 9.56571C50.7662 9.83238 51.5835 10.799 51.0831 12.1824L49.9654 15.2157C49.3983 16.7657 49.6819 18.5324 50.7161 19.8157L52.6678 22.2657C53.602 23.4324 53.1016 24.6157 52.9348 24.9491L52.9181 24.9324Z" fill="white"/>
<path d="M3.57402 28.9324L3.70748 29.1991C4.24129 30.2491 5.75931 30.2491 6.29312 29.1991L6.42657 28.9324C6.97706 27.8491 7.86118 26.9824 8.94548 26.4157L9.21239 26.2824C10.2633 25.7491 10.2633 24.2324 9.21239 23.6991L8.94548 23.5657C7.86118 23.0157 6.99374 22.1324 6.42657 21.0491L6.29312 20.7824C5.75931 19.7324 4.24129 19.7324 3.70748 20.7824L3.57402 21.0491C3.02353 22.1324 2.13941 22.9991 1.05511 23.5657L0.788203 23.6991C-0.262735 24.2324 -0.262735 25.7491 0.788203 26.2824L1.05511 26.4157C2.13941 26.9657 3.00685 27.8491 3.57402 28.9324Z" fill="#FFCD29"/>
<path d="M6.45993 11.5324L6.96038 11.7824C8.94549 12.799 10.5469 14.3991 11.5645 16.3824L11.8147 16.8824C12.7989 18.8157 15.5681 18.8157 16.5523 16.8824L16.8025 16.3824C17.8201 14.3991 19.4215 12.799 21.4066 11.7824L21.9071 11.5324C23.8421 10.549 23.8421 7.78237 21.9071 6.79904L21.4066 6.54904C19.4215 5.53237 17.8201 3.93237 16.8025 1.94903L16.5523 1.44903C15.5681 -0.484311 12.7989 -0.484311 11.8147 1.44903L11.5645 1.94903C10.5469 3.93237 8.94549 5.53237 6.96038 6.54904L6.45993 6.79904C4.52487 7.78237 4.52487 10.549 6.45993 11.5324Z" fill="#FFCD29"/>
<path d="M53.6015 48.4657L53.1011 48.2157C51.116 47.199 49.5146 45.599 48.497 43.6156L48.2467 43.1157C47.2625 41.1823 44.4934 41.1823 43.5092 43.1157L43.259 43.6156C42.2414 45.599 40.64 47.199 38.6549 48.2157L38.1544 48.4657C36.2194 49.449 36.2194 52.2157 38.1544 53.199L38.6549 53.449C40.64 54.4657 42.2414 56.0657 43.259 58.049L43.5092 58.549C44.4934 60.4824 47.2625 60.4824 48.2467 58.549L48.497 58.049C49.5146 56.0657 51.116 54.4657 53.1011 53.449L53.6015 53.199C55.5366 52.2157 55.5366 49.449 53.6015 48.4657Z" fill="#FFCD29"/>
</svg>
