<svg width="30" height="30" viewBox="0 0 30 30" fill="none" xmlns="http://www.w3.org/2000/svg">
<path d="M2.37273 18.8715L3.19091 19.2806C6.43637 20.9442 9.05455 23.5624 10.7182 26.8079L11.1273 27.6261C12.7364 30.7897 17.2636 30.7897 18.8727 27.6261L19.2818 26.8079C20.9455 23.5624 23.5636 20.9442 26.8091 19.2806L27.6273 18.8715C30.7909 17.2624 30.7909 12.7351 27.6273 11.1261L26.8091 10.717C23.5636 9.05333 20.9455 6.43514 19.2818 3.18969L18.8727 2.37151C17.2636 -0.79213 12.7364 -0.79213 11.1273 2.37151L10.7182 3.18969C9.05455 6.43514 6.43637 9.05333 3.19091 10.717L2.37273 11.1261C-0.790909 12.7351 -0.790909 17.2624 2.37273 18.8715Z" fill="#FFCD29"/>
</svg>
