<svg width="117" height="121" viewBox="0 0 117 121" fill="none" xmlns="http://www.w3.org/2000/svg">
<path d="M7.18713 58.3489L7.45549 58.8867C8.52895 61.0042 11.5816 61.0042 12.655 58.8867L12.9234 58.3489C14.0304 56.1642 15.8083 54.4164 17.9888 53.2736L18.5255 53.0047C20.6389 51.9292 20.6389 48.8706 18.5255 47.795L17.9888 47.5261C15.8083 46.4169 14.064 44.6356 12.9234 42.4508L12.655 41.9131C11.5816 39.7956 8.52895 39.7956 7.45549 41.9131L7.18713 42.4508C6.08012 44.6356 4.30221 46.3833 2.12175 47.5261L1.58502 47.795C-0.528342 48.8706 -0.528342 51.9292 1.58502 53.0047L2.12175 53.2736C4.30221 54.3828 6.04658 56.1642 7.18713 58.3489Z" fill="white"/>
<path d="M7.18713 58.3489L7.45549 58.8867C8.52895 61.0042 11.5816 61.0042 12.655 58.8867L12.9234 58.3489C14.0304 56.1642 15.8083 54.4164 17.9888 53.2736L18.5255 53.0047C20.6389 51.9292 20.6389 48.8706 18.5255 47.795L17.9888 47.5261C15.8083 46.4169 14.064 44.6356 12.9234 42.4508L12.655 41.9131C11.5816 39.7956 8.52895 39.7956 7.45549 41.9131L7.18713 42.4508C6.08012 44.6356 4.30221 46.3833 2.12175 47.5261L1.58502 47.795C-0.528342 48.8706 -0.528342 51.9292 1.58502 53.0047L2.12175 53.2736C4.30221 54.3828 6.04658 56.1642 7.18713 58.3489Z" fill="#FFF3D6"/>
<path d="M12.9905 23.2589L13.9969 23.7631C17.9888 25.8133 21.2091 29.04 23.2554 33.0397L23.7586 34.048C25.7378 37.9469 31.3063 37.9469 33.2855 34.048L33.7887 33.0397C35.835 29.04 39.0554 25.8133 43.0473 23.7631L44.0536 23.2589C47.9449 21.2758 47.9449 15.6964 44.0536 13.7133L43.0473 13.2092C39.0554 11.1589 35.835 7.93222 33.7887 3.9325L33.2855 2.92417C31.3063 -0.974722 25.7378 -0.974722 23.7586 2.92417L23.2554 3.9325C21.2091 7.93222 17.9888 11.1589 13.9969 13.2092L12.9905 13.7133C9.09922 15.6964 9.09922 21.2758 12.9905 23.2589Z" fill="white"/>
<path d="M12.9905 23.2589L13.9969 23.7631C17.9888 25.8133 21.2091 29.04 23.2554 33.0397L23.7586 34.048C25.7378 37.9469 31.3063 37.9469 33.2855 34.048L33.7887 33.0397C35.835 29.04 39.0554 25.8133 43.0473 23.7631L44.0536 23.2589C47.9449 21.2758 47.9449 15.6964 44.0536 13.7133L43.0473 13.2092C39.0554 11.1589 35.835 7.93222 33.7887 3.9325L33.2855 2.92417C31.3063 -0.974722 25.7378 -0.974722 23.7586 2.92417L23.2554 3.9325C21.2091 7.93222 17.9888 11.1589 13.9969 13.2092L12.9905 13.7133C9.09922 15.6964 9.09922 21.2758 12.9905 23.2589Z" fill="#FFF3D6"/>
<path d="M107.79 97.7411L106.784 97.2369C102.792 95.1867 99.5714 91.96 97.5252 87.9603L97.022 86.952C95.0428 83.0531 89.4742 83.0531 87.4951 86.952L86.9919 87.9603C84.9456 91.96 81.7252 95.1867 77.7333 97.2369L76.727 97.7411C72.8357 99.7242 72.8357 105.304 76.727 107.287L77.7333 107.791C81.7252 109.841 84.9456 113.068 86.9919 117.068L87.4951 118.076C89.4742 121.975 95.0428 121.975 97.022 118.076L97.5252 117.068C99.5714 113.068 102.792 109.841 106.784 107.791L107.79 107.287C111.681 105.304 111.681 99.7242 107.79 97.7411Z" fill="white"/>
<path d="M107.79 97.7411L106.784 97.2369C102.792 95.1867 99.5714 91.96 97.5252 87.9603L97.022 86.952C95.0428 83.0531 89.4742 83.0531 87.4951 86.952L86.9919 87.9603C84.9456 91.96 81.7252 95.1867 77.7333 97.2369L76.727 97.7411C72.8357 99.7242 72.8357 105.304 76.727 107.287L77.7333 107.791C81.7252 109.841 84.9456 113.068 86.9919 117.068L87.4951 118.076C89.4742 121.975 95.0428 121.975 97.022 118.076L97.5252 117.068C99.5714 113.068 102.792 109.841 106.784 107.791L107.79 107.287C111.681 105.304 111.681 99.7242 107.79 97.7411Z" fill="#FFF3D6"/>
<path d="M113.761 38.5856L110.004 33.8464L112.151 27.9644C114.197 22.385 112.855 16.3014 108.662 12.1C104.469 7.89861 98.3973 6.55417 92.8288 8.60444L86.9583 10.7556L82.2284 6.99111C77.532 3.26028 71.2926 2.62167 65.9588 5.37778C60.6251 8.13389 57.5054 13.5453 57.7737 19.5617L58.0421 25.3428L53.1109 28.6031C48.1462 31.8969 45.6303 37.6108 46.536 43.4928C46.8379 45.5094 47.5424 47.3581 48.5487 49.005L5.97949 93.1028C0.176116 99.1192 0.243206 108.833 6.14721 114.748C9.13276 117.74 13.0911 119.252 17.0495 119.252C21.0079 119.252 24.7985 117.807 27.7505 114.95L71.7622 72.2975C73.4059 73.3058 75.2509 74.0117 77.2637 74.3142C78.0688 74.4486 78.8403 74.4822 79.6119 74.4822C84.6101 74.4822 89.273 71.995 92.1243 67.6928L95.3783 62.7519L101.148 63.0208C107.153 63.3569 112.554 60.1639 115.304 54.8197C118.055 49.4756 117.418 43.2239 113.694 38.5183L113.761 38.5856ZM49.8235 62.2478L56.3984 55.4247C56.7003 55.5256 57.0022 55.66 57.3041 55.7608L63.3758 57.5086L65.1202 63.5922C65.2208 63.8947 65.355 64.1972 65.4557 64.4997L55.0901 74.5494L49.8235 62.2814V62.2478ZM47.3411 82.0111L38.1496 90.9181L33.252 79.423L42.2757 70.0792L47.3746 82.0111H47.3411ZM20.8066 107.724C18.7268 109.74 15.3387 109.707 13.2924 107.656C11.2461 105.606 11.2126 102.245 13.2253 100.128L25.6036 87.2881L30.3671 98.4133L20.7731 107.69L20.8066 107.724ZM106.415 50.2822C106.079 50.9544 104.67 53.1392 101.718 53.0047L95.6802 52.7022C92.3256 52.5342 89.0717 54.1811 87.1931 57.0044L83.7715 62.1806C82.1278 64.6678 79.5783 64.4997 78.8403 64.3653C78.1023 64.2644 75.6199 63.6594 74.7813 60.8025L72.9698 54.4836C72.0641 51.2569 69.5818 48.8033 66.3949 47.8958L60.0884 46.0808C57.237 45.2742 56.6332 42.7869 56.5326 42.0139C56.4319 41.2408 56.2306 38.72 58.713 37.0731L63.879 33.6447C66.6968 31.7961 68.3406 28.5358 68.1729 25.1411L67.8709 19.0911C67.7368 16.0997 69.9172 14.7217 70.5881 14.3856C70.9571 14.1839 71.8293 13.8142 72.9363 13.8142C73.842 13.8142 74.9155 14.0831 75.9889 14.9233L80.9201 18.8558C83.5031 20.9061 87.059 21.5111 90.1787 20.3683L96.284 18.1164C99.0683 17.1081 101.014 18.755 101.551 19.2928C102.087 19.8306 103.731 21.78 102.725 24.5697L100.477 30.6869C99.3366 33.8128 99.9069 37.3755 101.987 39.9636L105.912 44.9044C107.79 47.2572 106.784 49.6436 106.448 50.3158L106.415 50.2822Z" fill="white"/>
<path d="M113.761 38.5856L110.004 33.8464L112.151 27.9644C114.197 22.385 112.855 16.3014 108.662 12.1C104.469 7.89861 98.3973 6.55417 92.8288 8.60444L86.9583 10.7556L82.2284 6.99111C77.532 3.26028 71.2926 2.62167 65.9588 5.37778C60.6251 8.13389 57.5054 13.5453 57.7737 19.5617L58.0421 25.3428L53.1109 28.6031C48.1462 31.8969 45.6303 37.6108 46.536 43.4928C46.8379 45.5094 47.5424 47.3581 48.5487 49.005L5.97949 93.1028C0.176116 99.1192 0.243206 108.833 6.14721 114.748C9.13276 117.74 13.0911 119.252 17.0495 119.252C21.0079 119.252 24.7985 117.807 27.7505 114.95L71.7622 72.2975C73.4059 73.3058 75.2509 74.0117 77.2637 74.3142C78.0688 74.4486 78.8403 74.4822 79.6119 74.4822C84.6101 74.4822 89.273 71.995 92.1243 67.6928L95.3783 62.7519L101.148 63.0208C107.153 63.3569 112.554 60.1639 115.304 54.8197C118.055 49.4756 117.418 43.2239 113.694 38.5183L113.761 38.5856ZM49.8235 62.2478L56.3984 55.4247C56.7003 55.5256 57.0022 55.66 57.3041 55.7608L63.3758 57.5086L65.1202 63.5922C65.2208 63.8947 65.355 64.1972 65.4557 64.4997L55.0901 74.5494L49.8235 62.2814V62.2478ZM47.3411 82.0111L38.1496 90.9181L33.252 79.423L42.2757 70.0792L47.3746 82.0111H47.3411ZM20.8066 107.724C18.7268 109.74 15.3387 109.707 13.2924 107.656C11.2461 105.606 11.2126 102.245 13.2253 100.128L25.6036 87.2881L30.3671 98.4133L20.7731 107.69L20.8066 107.724ZM106.415 50.2822C106.079 50.9544 104.67 53.1392 101.718 53.0047L95.6802 52.7022C92.3256 52.5342 89.0717 54.1811 87.1931 57.0044L83.7715 62.1806C82.1278 64.6678 79.5783 64.4997 78.8403 64.3653C78.1023 64.2644 75.6199 63.6594 74.7813 60.8025L72.9698 54.4836C72.0641 51.2569 69.5818 48.8033 66.3949 47.8958L60.0884 46.0808C57.237 45.2742 56.6332 42.7869 56.5326 42.0139C56.4319 41.2408 56.2306 38.72 58.713 37.0731L63.879 33.6447C66.6968 31.7961 68.3406 28.5358 68.1729 25.1411L67.8709 19.0911C67.7368 16.0997 69.9172 14.7217 70.5881 14.3856C70.9571 14.1839 71.8293 13.8142 72.9363 13.8142C73.842 13.8142 74.9155 14.0831 75.9889 14.9233L80.9201 18.8558C83.5031 20.9061 87.059 21.5111 90.1787 20.3683L96.284 18.1164C99.0683 17.1081 101.014 18.755 101.551 19.2928C102.087 19.8306 103.731 21.78 102.725 24.5697L100.477 30.6869C99.3366 33.8128 99.9069 37.3755 101.987 39.9636L105.912 44.9044C107.79 47.2572 106.784 49.6436 106.448 50.3158L106.415 50.2822Z" fill="#FFF3D6"/>
</svg>
