<svg width="20" height="20" viewBox="0 0 20 20" fill="none" xmlns="http://www.w3.org/2000/svg">
<path d="M1.58182 12.5818L2.12727 12.8545C4.29091 13.9636 6.03636 15.7091 7.14546 17.8727L7.41818 18.4182C8.49091 20.5273 11.5091 20.5273 12.5818 18.4182L12.8545 17.8727C13.9636 15.7091 15.7091 13.9636 17.8727 12.8545L18.4182 12.5818C20.5273 11.5091 20.5273 8.49091 18.4182 7.41818L17.8727 7.14546C15.7091 6.03636 13.9636 4.29091 12.8545 2.12727L12.5818 1.58182C11.5091 -0.527273 8.49091 -0.527273 7.41818 1.58182L7.14546 2.12727C6.03636 4.29091 4.29091 6.03636 2.12727 7.14546L1.58182 7.41818C-0.527273 8.49091 -0.527273 11.5091 1.58182 12.5818Z" fill="#521A99"/>
</svg>
