<svg width="202" height="60" viewBox="0 0 202 60" fill="none" xmlns="http://www.w3.org/2000/svg">
<g clip-path="url(#clip0_1_474)">
<path d="M75.3642 39.4991H71.1921C70.596 39.4991 70 39.0215 70 38.3053V23.5019C70 22.905 70.4768 22.3081 71.1921 22.3081H75.3642C76.7947 22.3081 78.1059 22.5469 79.298 22.905C80.49 23.3825 81.4437 23.9795 82.1589 24.6957C82.9934 25.5314 83.4702 26.3671 83.947 27.4415C84.3046 28.516 84.543 29.5904 84.543 30.7842C84.543 31.978 84.3046 33.0525 83.947 34.1269C83.5894 35.2013 82.9934 36.1564 82.1589 36.8727C81.4437 37.589 80.3708 38.3053 79.298 38.6634C78.2252 39.2603 76.9139 39.4991 75.3642 39.4991ZM72.8609 36.6339H75.3642C76.4371 36.6339 77.3907 36.5145 78.2251 36.1564C78.9404 35.9176 79.6556 35.4401 80.1324 34.9626C80.6093 34.485 80.9669 33.8881 81.2053 33.1718C81.4437 32.4556 81.5629 31.6199 81.5629 30.7842C81.5629 29.9485 81.4437 29.1129 81.2053 28.3966C80.9669 27.6803 80.6093 27.0834 80.1324 26.6058C79.6556 26.1283 79.0596 25.7702 78.2251 25.412C77.3907 25.1733 76.4371 24.9345 75.3642 24.9345H72.8609V36.6339Z" fill="#151515"/>
<path d="M140.574 39.3797C139.62 39.3797 138.547 39.2604 137.594 39.0216C136.64 38.7828 135.686 38.4247 134.971 38.0665C134.613 37.8278 134.375 37.4696 134.375 36.9921V36.5146C134.375 36.1564 134.613 35.6789 134.971 35.5595C135.329 35.3208 135.805 35.3208 136.163 35.5595C136.759 35.9177 137.474 36.1564 138.19 36.3952C139.501 36.7533 140.812 36.7533 142.004 36.5146C142.362 36.3952 142.719 36.2758 143.077 36.1564C143.315 36.0371 143.554 35.7983 143.673 35.5595C143.792 35.3208 143.911 35.082 143.911 34.7239C143.911 34.3657 143.792 34.0076 143.673 33.7688C143.435 33.53 143.315 33.2913 142.958 33.0525C142.6 32.8138 142.243 32.575 141.766 32.4556C141.17 32.2168 140.693 32.0975 140.097 31.8587C139.501 31.6199 138.905 31.5006 138.309 31.2618C137.713 31.023 137.117 30.6649 136.521 30.3067C135.925 29.9486 135.567 29.4711 135.209 28.8742C134.852 28.2772 134.613 27.4416 134.613 26.6059C134.613 25.7702 134.852 25.0539 135.209 24.457C135.567 23.8601 136.044 23.3826 136.64 22.9051C137.236 22.5469 137.832 22.3082 138.428 22.0694C139.858 21.7112 141.408 21.7112 142.958 22.0694C143.792 22.3082 144.507 22.5469 145.223 22.9051C145.58 23.1438 145.819 23.502 145.819 23.9795V24.457C145.819 24.9346 145.58 25.2927 145.223 25.5315C144.865 25.7702 144.388 25.7702 144.031 25.5315C143.554 25.2927 143.077 25.0539 142.362 24.9346C141.766 24.8152 141.05 24.6958 140.454 24.6958C139.978 24.6958 139.62 24.6958 139.143 24.8152C138.786 24.9346 138.428 25.0539 138.19 25.1733C137.951 25.2927 137.832 25.5315 137.594 25.7702C137.474 26.009 137.355 26.2478 137.355 26.6059C137.355 27.2028 137.594 27.4416 137.713 27.6803C138.07 28.0385 138.547 28.2772 139.024 28.6354C139.62 28.8742 140.335 29.1129 141.17 29.3517C142.004 29.5904 142.839 29.9486 143.554 30.3067C144.388 30.6649 145.103 31.2618 145.699 31.8587C146.296 32.575 146.653 33.53 146.653 34.7239C146.653 35.5595 146.415 36.3952 146.057 36.9921C145.699 37.589 145.223 38.0665 144.627 38.5441C144.031 38.9022 143.435 39.141 142.719 39.2604C142.004 39.2604 141.289 39.3797 140.574 39.3797Z" fill="#151515"/>
<path d="M26.8496 17.6523C26.4919 17.7716 26.0151 17.891 25.6575 18.0104C24.9423 18.2492 24.4655 18.8461 24.1078 19.5624C23.2734 21.2337 23.3926 23.1438 23.3926 25.0539C23.5118 28.1578 23.7502 31.2618 23.9886 34.4851C23.9886 34.7238 23.9886 34.9626 24.227 35.082C24.4654 35.3207 24.8231 35.4401 25.0615 35.4401C28.28 35.9177 31.6178 36.3952 34.5979 34.8432C34.8363 34.7238 35.0747 34.4851 35.0747 34.2463C35.0747 34.1269 34.9555 34.0076 34.8363 33.8882C34.3595 33.1719 33.6442 32.6944 33.1674 31.9781C32.2138 30.6649 32.333 28.516 33.6442 27.6803C33.8827 27.5609 34.2403 27.4416 34.3595 27.2028C34.7171 26.7253 34.4787 25.8896 35.0747 25.5314C35.1939 25.4121 35.4323 25.4121 35.6707 25.2927C36.8628 24.8152 36.982 23.0244 36.5052 21.8306C35.9091 20.5174 34.7171 19.443 33.4058 18.8461C31.6178 17.7716 28.9952 17.2941 26.8496 17.6523Z" fill="#00A0B4"/>
<path d="M65.4739 39.141C64.7587 36.5146 58.9177 13.3545 58.56 11.5638C57.8448 8.57924 54.1495 7.26604 51.1693 8.45986C49.7389 9.05677 23.3945 16.4584 23.3945 16.4584C23.3945 16.4584 40.6793 17.5329 36.9839 25.0539C36.5071 26.1284 32.6925 29.2323 32.3349 30.1873C32.4541 30.1873 32.5733 30.3067 32.5733 30.3067C34.9574 31.7393 37.5799 33.8882 39.964 34.9626C41.2753 35.5595 42.9442 38.1859 42.4673 39.8573C41.2753 44.155 41.8713 43.2 38.8912 42.0061C37.8183 41.5286 36.8647 42.7224 35.9111 42.1255C34.9574 43.4387 38.5336 42.9612 34.9574 43.6775C34.9574 43.6775 58.7985 45.707 60.5865 45.8264C64.9971 46.1845 66.666 44.0356 65.4739 39.141Z" fill="#009CCA"/>
<g opacity="0.6">
<path d="M19.1006 1.4161C16.7165 3.20683 3.00789 13.3543 1.45823 14.6675C-0.80667 16.697 -0.329849 19.9203 2.17346 21.8304C3.48471 22.7854 22.6767 37.1112 22.6767 37.1112C22.6767 37.1112 24.9416 32.5747 24.584 26.9638C24.4648 25.5312 23.988 22.4273 24.2264 21.1141C24.3456 20.2784 24.4648 19.3234 25.18 18.8458C25.5377 18.6071 25.8953 18.6071 26.2529 18.4877C28.3986 18.2489 30.5443 18.6071 32.3324 19.6815C33.0476 20.0397 33.6436 20.5172 34.3588 20.8753C35.4317 21.3529 36.0277 20.9947 36.9813 20.8753C37.5774 20.7559 38.1734 20.6366 38.6502 21.3529C38.6502 21.3529 28.3986 4.87817 27.3257 3.20683C24.8224 -0.494009 22.1999 -0.852153 19.1006 1.4161Z" fill="#8480AD"/>
</g>
<g opacity="0.5">
<path d="M7.89352 56.5708C9.44318 57.7646 9.92 58.0034 11.4697 58.9584C13.2577 60.0329 15.5226 60.6298 18.2644 58.9584C23.9862 55.377 40.3173 44.3938 42.8206 42.245C44.4895 40.8124 43.1782 38.6635 42.463 36.7534C42.2246 36.1565 38.5292 34.8433 37.9332 34.6045C34.1186 33.0526 32.8074 34.7239 29.112 34.9627C28.516 34.9627 27.8008 34.9627 27.3239 34.7239C26.8471 34.4852 26.4895 34.127 26.2511 33.7689C24.3438 31.62 25.8935 27.6804 25.0591 25.054C24.463 22.9051 22.4365 17.1748 22.4365 17.1748C22.4365 17.1748 8.48954 46.6621 7.77431 48.4528C6.22464 51.9149 5.03259 54.3025 7.89352 56.5708Z" fill="#00A0B4"/>
</g>
<path d="M23.3945 16.4582L33.7654 13.4736L38.0568 20.2784L23.3945 16.4582Z" fill="#8480AD"/>
<path d="M15.5234 31.7396L22.9142 37.1118L22.4373 17.2944L15.5234 31.7396Z" fill="#00A0B4"/>
<path d="M37.3418 43.9168C36.1498 43.9168 34.9577 43.7974 33.8849 43.5587C32.812 43.3199 31.7392 42.9617 30.7855 42.4842C30.3087 42.2455 30.0703 41.7679 30.0703 41.2904V40.5741C30.0703 40.0966 30.3087 39.6191 30.7855 39.3803C31.2624 39.1415 31.8584 39.1415 32.216 39.3803C32.9312 39.7384 33.7657 40.0966 34.6001 40.216C36.0306 40.5741 37.5802 40.5741 38.8915 40.3353C39.3683 40.216 39.7259 40.0966 40.0835 39.9772C40.3219 39.8578 40.5604 39.6191 40.6796 39.3803C40.7988 39.1415 40.918 38.9028 40.918 38.5446C40.918 38.1865 40.7988 37.8283 40.6796 37.5896C40.4412 37.2314 40.2027 36.9927 39.9643 36.8733C39.6067 36.6345 39.1299 36.3957 38.5339 36.157C37.9378 35.9182 37.2226 35.6795 36.6266 35.5601C35.9114 35.3213 35.1961 35.0826 34.6001 34.8438C33.8849 34.605 33.1696 34.2469 32.5736 33.7694C31.9776 33.2918 31.3816 32.8143 31.024 32.098C30.5471 31.3817 30.3087 30.546 30.3087 29.591C30.3087 28.6359 30.5471 27.8003 30.9047 27.084C31.2624 26.3677 31.8584 25.7708 32.5736 25.4126C33.1696 25.0545 33.8849 24.6963 34.7193 24.4576C36.3882 24.0994 38.1763 24.0994 39.9643 24.4576C40.918 24.6963 41.8716 25.0545 42.5869 25.4126C43.0637 25.6514 43.3021 26.1289 43.3021 26.6064V27.4421C43.3021 27.9196 43.0637 28.3972 42.5869 28.6359C42.11 28.8747 41.514 28.8747 41.1564 28.6359C40.6796 28.3972 40.0835 28.1584 39.3683 27.9196C38.6531 27.8003 37.9379 27.6809 37.2226 27.6809C36.7458 27.6809 36.269 27.6809 35.7922 27.8003C35.4345 27.9196 35.0769 28.039 34.7193 28.1584C34.4809 28.2778 34.2425 28.5166 34.1233 28.7553C34.0041 28.9941 33.8849 29.2328 33.8849 29.591C33.8849 30.1879 34.1233 30.4267 34.2425 30.6654C34.6001 31.0236 35.1961 31.3817 35.7922 31.6205C36.5074 31.9786 37.3418 32.2174 38.1763 32.4562C39.1299 32.6949 40.0835 33.0531 40.918 33.5306C41.8716 34.0081 42.7061 34.605 43.3021 35.3213C44.0173 36.157 44.4941 37.2314 44.4941 38.5446C44.4941 39.4997 44.2557 40.3354 43.7789 41.0516C43.3021 41.7679 42.7061 42.3648 41.9908 42.723C41.2756 43.0811 40.5604 43.4393 39.7259 43.5587C39.0107 43.7974 38.1763 43.9168 37.3418 43.9168Z" fill="white"/>
<path d="M39.3668 22.7852C38.8899 21.472 38.1747 20.2782 37.2211 19.3232C36.2674 18.3681 35.0754 17.6518 33.6449 17.0549C32.3337 16.5774 30.6648 16.2192 28.8767 16.2192H23.8701C23.0357 16.2192 22.3204 16.9355 22.3204 17.7712V35.6785C22.3204 36.5141 23.0357 37.2304 23.8701 37.2304H28.9959C30.784 37.2304 32.3337 36.9917 33.7641 36.3948C35.1946 35.9172 36.3866 35.0816 37.3403 34.1265C37.6979 33.7684 37.9363 33.4102 38.2939 33.0521C37.1019 32.6939 35.9098 32.097 34.9562 31.3807C34.9562 31.5001 34.837 31.5001 34.837 31.6195C34.2409 32.2164 33.5257 32.6939 32.5721 32.9327C31.6184 33.2908 30.5456 33.4102 29.1151 33.4102H26.2542V20.0395H29.1151C30.4264 20.0395 31.6184 20.1588 32.5721 20.517C33.5257 20.8751 34.2409 21.3527 34.837 21.8302C35.433 22.4271 35.7906 23.1434 36.1482 23.8597C36.5058 24.6953 36.625 25.6504 36.625 26.7248C36.625 26.8442 36.625 26.9636 36.625 27.083C37.8171 26.8442 39.1284 27.083 40.3204 27.5605C40.3204 27.3217 40.3204 26.9636 40.3204 26.7248C40.082 25.4116 39.8436 24.0984 39.3668 22.7852Z" fill="white"/>
<path d="M73.2159 44.9909H72.9775V42.7226L72.0238 44.2746L71.0702 42.7226V44.9909H70.8318V42.2451H71.1894L72.143 43.7971L73.0967 42.2451H73.4543V44.9909H73.2159Z" fill="#151515"/>
<path d="M76.5522 43.6775V43.7968H74.1681C74.2873 44.3937 74.6449 44.7519 75.3601 44.7519C75.837 44.7519 76.0754 44.5131 76.3138 44.2744L76.5522 44.3937C76.3138 44.7519 75.9562 44.9907 75.3601 44.9907C74.5257 44.9907 73.9297 44.3937 73.9297 43.5581C73.9297 42.7224 74.5257 42.1255 75.3601 42.1255C76.0754 42.2449 76.5522 42.9612 76.5522 43.6775ZM74.1681 43.5581H76.3138C76.3138 42.9612 75.837 42.4836 75.2409 42.4836C74.6449 42.4836 74.1681 42.9612 74.1681 43.5581Z" fill="#151515"/>
<path d="M79.652 44.9904L78.46 43.6772V44.9904H78.2215V43.6772L77.0295 44.9904H76.6719L77.9831 43.5578L76.7911 42.2446H77.1487L78.3407 43.4384V42.2446H78.5792V43.4384L79.7712 42.2446H80.1288L78.9368 43.5578L80.248 44.9904H79.652Z" fill="#151515"/>
<path d="M83.1128 44.7514V45.7065H82.8744V44.9902H80.6095V45.7065H80.3711V44.7514H80.7287C80.9671 44.5126 80.9671 44.1545 80.9671 43.677V42.3638H82.8744V44.7514H83.1128ZM82.5168 44.7514V42.6025H81.2055V43.677C81.2055 44.1545 81.0863 44.5126 80.9671 44.7514H82.5168Z" fill="#151515"/>
<path d="M85.853 42.2446L84.6609 45.2292C84.4225 45.7067 84.0649 46.0648 83.5881 46.0648V45.8261C83.9457 45.8261 84.1841 45.5873 84.4225 45.2292V45.1098L83.2305 42.364H83.4689L84.5417 44.7516L85.4954 42.364H85.853V42.2446Z" fill="#151515"/>
<path d="M88.5949 42.2446V44.9904H88.3565V43.7966H86.6876V44.9904H86.4492V42.2446H86.6876V43.4384H88.3565V42.2446H88.5949Z" fill="#151515"/>
<path d="M92.0522 42.2446V44.9904H91.8138V44.3935C91.5754 44.7516 91.2178 45.1098 90.6217 45.1098C89.9065 45.1098 89.1913 44.5129 89.1913 43.6772C89.1913 42.8415 89.7873 42.2446 90.6217 42.2446C91.0986 42.2446 91.5754 42.4834 91.8138 42.9609V42.364H92.0522V42.2446ZM91.8138 43.6772C91.8138 43.0803 91.337 42.4834 90.6217 42.4834C90.0257 42.4834 89.4297 42.9609 89.4297 43.6772C89.4297 44.2741 89.9065 44.871 90.6217 44.871C91.337 44.7516 91.8138 44.2741 91.8138 43.6772Z" fill="#151515"/>
<path d="M95.7437 43.6767C95.7437 44.5124 95.1477 45.1093 94.3133 45.1093C93.8364 45.1093 93.3596 44.8705 93.1212 44.393V46.0644H92.8828V42.2441H93.1212V42.9604C93.3596 42.6023 93.7172 42.2441 94.3133 42.2441C95.0285 42.2441 95.7437 42.841 95.7437 43.6767ZM95.3861 43.6767C95.3861 43.0798 94.9093 42.4829 94.1941 42.4829C93.598 42.4829 93.002 42.9604 93.002 43.6767C93.002 44.2736 93.4788 44.8705 94.1941 44.8705C94.9093 44.7512 95.3861 44.2736 95.3861 43.6767Z" fill="#151515"/>
<path d="M96.1016 43.6777C96.1016 42.842 96.6976 42.2451 97.532 42.2451C98.3665 42.2451 98.9625 42.842 98.9625 43.6777C98.9625 44.5134 98.3665 45.1103 97.532 45.1103C96.8168 44.9909 96.1016 44.394 96.1016 43.6777ZM98.7241 43.6777C98.7241 43.0808 98.2473 42.4839 97.532 42.4839C96.936 42.4839 96.34 42.9614 96.34 43.6777C96.34 44.2746 96.8168 44.8715 97.532 44.8715C98.2473 44.7521 98.7241 44.2746 98.7241 43.6777Z" fill="#151515"/>
<path d="M102.062 44.7514V45.7065H101.824V44.9902H99.5588V45.7065H99.3204V44.7514H99.678C99.9165 44.5126 99.9165 44.1545 99.9165 43.677V42.3638H101.824V44.7514H102.062ZM101.466 44.7514V42.6025H100.155V43.677C100.155 44.1545 100.036 44.5126 99.9165 44.7514H101.466Z" fill="#151515"/>
<path d="M104.923 42.2451V44.9909H104.685V43.7971H103.016V44.9909H102.777V42.2451H103.016V43.4389H104.685V42.2451H104.923Z" fill="#151515"/>
<path d="M108.384 42.2446V44.9904H108.146V44.3935C107.908 44.7516 107.55 45.1098 106.954 45.1098C106.239 45.1098 105.523 44.5129 105.523 43.6772C105.523 42.8415 106.119 42.2446 106.954 42.2446C107.431 42.2446 107.908 42.4834 108.146 42.9609V42.364H108.384V42.2446ZM108.027 43.6772C108.027 43.0803 107.55 42.4834 106.835 42.4834C106.239 42.4834 105.643 42.9609 105.643 43.6772C105.643 44.2741 106.119 44.871 106.835 44.871C107.55 44.7516 108.027 44.2741 108.027 43.6772Z" fill="#151515"/>
<path d="M111.003 44.9904H110.765V43.916H110.169L109.334 44.9904H108.977L109.811 43.916C109.334 43.916 109.096 43.5578 109.096 43.0803C109.096 42.6028 109.453 42.2446 109.93 42.2446H111.003V44.9904ZM110.765 43.6772V42.6028H109.93C109.573 42.6028 109.334 42.8415 109.334 43.1997C109.334 43.5578 109.573 43.7966 109.93 43.7966H110.765V43.6772Z" fill="#151515"/>
<path d="M113.148 43.6767C113.148 42.841 113.744 42.2441 114.579 42.2441C115.056 42.2441 115.533 42.4829 115.771 42.9604L115.533 43.0798C115.413 42.7217 115.056 42.4829 114.579 42.4829C113.983 42.4829 113.387 42.9604 113.387 43.6767C113.387 44.2736 113.864 44.8705 114.579 44.8705C115.056 44.8705 115.413 44.6318 115.533 44.2736L115.771 44.393C115.533 44.7512 115.056 45.1093 114.579 45.1093C113.744 44.9899 113.148 44.393 113.148 43.6767Z" fill="#151515"/>
<path d="M118.513 42.2446V44.9904H118.274V42.7222L116.606 44.9904H116.367V42.2446H116.606V44.5129L118.274 42.2446H118.513Z" fill="#151515"/>
<path d="M119.109 43.6767C119.109 42.841 119.705 42.2441 120.54 42.2441C121.017 42.2441 121.493 42.4829 121.732 42.9604L121.493 43.0798C121.374 42.7217 121.017 42.4829 120.54 42.4829C119.944 42.4829 119.348 42.9604 119.348 43.6767C119.348 44.2736 119.825 44.8705 120.54 44.8705C121.017 44.8705 121.374 44.6318 121.493 44.2736L121.732 44.393C121.493 44.7512 121.017 45.1093 120.54 45.1093C119.705 44.9899 119.109 44.393 119.109 43.6767Z" fill="#151515"/>
<path d="M124.236 42.6025H123.282V44.9902H123.043V42.6025H122.09V42.3638H124.355V42.6025H124.236Z" fill="#151515"/>
<path d="M127.095 43.677V43.7963H124.711C124.83 44.3933 125.188 44.7514 125.903 44.7514C126.38 44.7514 126.618 44.5126 126.857 44.2739L127.095 44.3933C126.857 44.7514 126.499 44.9902 125.903 44.9902C125.069 44.9902 124.473 44.3933 124.473 43.5576C124.473 42.7219 125.069 42.125 125.903 42.125C126.618 42.2444 127.095 42.9607 127.095 43.677ZM124.711 43.5576H126.857C126.857 42.9607 126.38 42.4831 125.784 42.4831C125.188 42.4831 124.711 42.9607 124.711 43.5576Z" fill="#151515"/>
<path d="M130.314 44.9904H130.075V42.7222L129.122 44.2741L128.168 42.7222V44.9904H127.93V42.2446H128.287L129.241 43.7966L130.195 42.2446H130.552V44.9904H130.314Z" fill="#151515"/>
<path d="M133.771 42.2441V44.9899H133.533V44.393C133.294 44.7512 132.937 45.1093 132.341 45.1093C131.625 45.1093 130.91 44.5124 130.91 43.6767C130.91 42.841 131.506 42.2441 132.341 42.2441C132.817 42.2441 133.294 42.4829 133.533 42.9604V42.3635H133.771V42.2441ZM133.533 43.6767C133.533 43.0798 133.056 42.4829 132.341 42.4829C131.745 42.4829 131.149 42.9604 131.149 43.6767C131.149 44.2736 131.625 44.8705 132.341 44.8705C133.056 44.7512 133.533 44.2736 133.533 43.6767Z" fill="#151515"/>
<path d="M139.615 42.2446V44.9904H136.039V42.2446H136.277V44.6323H137.708V42.2446H137.946V44.6323H139.258V42.2446H139.615Z" fill="#151515"/>
<path d="M142.118 44.9904L140.688 43.6772V44.9904H140.449V42.2446H140.688V43.4384L141.999 42.2446H142.356L140.926 43.5578L142.476 44.9904H142.118Z" fill="#151515"/>
<path d="M142.594 43.6772C142.594 42.8415 143.19 42.2446 144.024 42.2446C144.859 42.2446 145.455 42.8415 145.455 43.6772C145.455 44.5129 144.859 45.1098 144.024 45.1098C143.19 44.9904 142.594 44.3935 142.594 43.6772ZM145.097 43.6772C145.097 43.0803 144.62 42.4834 143.905 42.4834C143.309 42.4834 142.713 42.9609 142.713 43.6772C142.713 44.2741 143.19 44.871 143.905 44.871C144.62 44.7516 145.097 44.2741 145.097 43.6772Z" fill="#151515"/>
<path d="M148.078 44.9902H147.839V42.6025H146.528V43.9157C146.528 44.8708 146.17 45.1096 145.574 44.9902V44.7514C145.932 44.7514 146.17 44.5126 146.17 43.9157V42.3638H148.078V44.9902Z" fill="#151515"/>
<path d="M152.607 42.2441V44.9899H152.368V42.7217L150.699 44.9899H150.461V42.2441H150.699V44.5124L152.368 42.2441H152.607Z" fill="#151515"/>
<path d="M155.591 42.2446V44.9904H155.353V43.7966H153.684V44.9904H153.445V42.2446H153.684V43.4384H155.353V42.2446H155.591Z" fill="#151515"/>
<path d="M156.301 43.6767C156.301 42.841 156.897 42.2441 157.731 42.2441C158.566 42.2441 159.162 42.841 159.162 43.6767C159.162 44.5124 158.566 45.1093 157.731 45.1093C156.897 44.9899 156.301 44.393 156.301 43.6767ZM158.804 43.6767C158.804 43.0798 158.327 42.4829 157.612 42.4829C157.016 42.4829 156.42 42.9604 156.42 43.6767C156.42 44.2736 156.897 44.8705 157.612 44.8705C158.327 44.7512 158.804 44.2736 158.804 43.6767Z" fill="#151515"/>
<path d="M159.523 43.6772C159.523 42.8415 160.119 42.2446 160.954 42.2446C161.431 42.2446 161.908 42.4834 162.146 42.9609L161.908 43.0803C161.788 42.7222 161.431 42.4834 160.954 42.4834C160.358 42.4834 159.762 42.9609 159.762 43.6772C159.762 44.2741 160.239 44.871 160.954 44.871C161.431 44.871 161.788 44.6323 161.908 44.2741L162.146 44.3935C161.908 44.7516 161.431 45.1098 160.954 45.1098C160.119 44.9904 159.523 44.3935 159.523 43.6772Z" fill="#151515"/>
<path d="M164.529 42.6025H163.575V44.9902H163.337V42.6025H162.383V42.3638H164.648V42.6025H164.529Z" fill="#151515"/>
<path d="M167.865 43.6772C167.865 44.5129 167.269 45.1098 166.434 45.1098C165.958 45.1098 165.481 44.871 165.242 44.3935V46.0648H165.004V42.2446H165.242V42.9609C165.481 42.6028 165.838 42.2446 166.434 42.2446C167.269 42.2446 167.865 42.8415 167.865 43.6772ZM167.626 43.6772C167.626 43.0803 167.15 42.4834 166.434 42.4834C165.838 42.4834 165.242 42.9609 165.242 43.6772C165.242 44.2741 165.719 44.871 166.434 44.871C167.03 44.7516 167.626 44.2741 167.626 43.6772Z" fill="#151515"/>
<path d="M171.084 42.2446V44.9904H170.845V44.3935C170.607 44.7516 170.249 45.1098 169.653 45.1098C168.938 45.1098 168.223 44.5129 168.223 43.6772C168.223 42.8415 168.819 42.2446 169.653 42.2446C170.13 42.2446 170.607 42.4834 170.845 42.9609V42.364H171.084V42.2446ZM170.845 43.6772C170.845 43.0803 170.368 42.4834 169.653 42.4834C169.057 42.4834 168.461 42.9609 168.461 43.6772C168.461 44.2741 168.938 44.871 169.653 44.871C170.368 44.7516 170.845 44.2741 170.845 43.6772Z" fill="#151515"/>
<path d="M174.185 42.2441V44.9899H173.946V43.7961H172.277V44.9899H172.039V42.2441H172.277V43.438H173.946V42.2441H174.185Z" fill="#151515"/>
<path d="M177.165 42.2451V44.9909H176.927V43.7971H175.258V44.9909H175.02V42.2451H175.258V43.4389H176.927V42.2451H177.165Z" fill="#151515"/>
<path d="M183.124 44.9909L182.17 43.7971L181.217 44.9909H180.859L181.932 43.5583L180.978 42.2451H181.336L182.17 43.3196L183.005 42.2451H183.362L182.409 43.5583L183.482 44.9909H183.124Z" fill="#151515"/>
<path d="M187.417 44.9904H187.179V43.916H186.583L185.748 44.9904H185.391L186.225 43.916C185.748 43.916 185.51 43.5578 185.51 43.0803C185.51 42.6028 185.867 42.2446 186.344 42.2446H187.417V44.9904ZM187.179 43.6772V42.6028H186.344C185.987 42.6028 185.748 42.8415 185.748 43.1997C185.748 43.5578 185.987 43.7966 186.344 43.7966H187.179V43.6772Z" fill="#151515"/>
<path d="M190.034 44.2739C190.034 44.632 189.677 45.1095 189.081 45.1095C188.485 45.1095 188.127 44.8708 188.008 44.5126L188.246 44.3933C188.365 44.7514 188.604 44.8708 189.081 44.8708C189.557 44.8708 189.796 44.632 189.796 44.2739C189.796 44.0351 189.557 43.7964 189.2 43.7964H188.842V43.5576H189.081C189.438 43.5576 189.677 43.3188 189.677 43.0801C189.677 42.8413 189.438 42.6025 189.081 42.6025C188.723 42.6025 188.485 42.7219 188.365 43.0801L188.127 42.9607C188.246 42.6025 188.604 42.3638 189.081 42.3638C189.677 42.3638 190.034 42.7219 190.034 43.0801C190.034 43.3188 189.915 43.5576 189.677 43.677C189.915 43.677 190.034 43.9157 190.034 44.2739Z" fill="#151515"/>
<path d="M192.54 44.1542C192.54 44.6318 192.182 44.9899 191.706 44.9899H190.633V42.2441H190.871V43.3186H191.706C192.182 43.3186 192.54 43.6767 192.54 44.1542ZM192.302 44.1542C192.302 43.7961 192.063 43.5573 191.706 43.5573H190.871V44.6318H191.706C192.063 44.7512 192.302 44.5124 192.302 44.1542ZM193.255 42.2441V44.9899H193.017V42.2441H193.255Z" fill="#151515"/>
<path d="M179.782 44.1547C179.782 44.6323 179.425 44.9904 178.948 44.9904H177.875V42.2446H178.113V43.3191H178.948C179.425 43.3191 179.782 43.6772 179.782 44.1547ZM179.544 44.1547C179.544 43.7966 179.305 43.5578 178.948 43.5578H178.113V44.6323H178.948C179.186 44.7516 179.544 44.5129 179.544 44.1547ZM180.498 42.2446V44.9904H180.259V42.2446H180.498Z" fill="#151515"/>
<path d="M195.763 44.9904L194.332 43.6772V44.9904H194.094V42.2446H194.332V43.4384L195.643 42.2446H196.001L194.571 43.5578L196.12 44.9904H195.763Z" fill="#151515"/>
<path d="M196.234 43.6772C196.234 42.8415 196.83 42.2446 197.665 42.2446C198.499 42.2446 199.095 42.8415 199.095 43.6772C199.095 44.5129 198.499 45.1098 197.665 45.1098C196.83 44.9904 196.234 44.3935 196.234 43.6772ZM198.738 43.6772C198.738 43.0803 198.261 42.4834 197.546 42.4834C196.95 42.4834 196.354 42.9609 196.354 43.6772C196.354 44.2741 196.83 44.871 197.546 44.871C198.261 44.7516 198.738 44.2741 198.738 43.6772Z" fill="#151515"/>
<path d="M201.837 44.2741C201.837 44.6323 201.599 44.9904 201.003 44.9904H199.691V42.2446H200.883C201.36 42.2446 201.718 42.6028 201.718 42.9609C201.718 43.1997 201.599 43.4384 201.36 43.5578C201.718 43.6772 201.837 43.916 201.837 44.2741ZM199.93 42.6028V43.5578H200.883C201.241 43.5578 201.36 43.4384 201.36 43.0803C201.36 42.8415 201.122 42.6028 200.883 42.6028H199.93ZM201.599 44.2741C201.599 44.0354 201.36 43.7966 201.003 43.7966H199.93V44.7516H201.003C201.36 44.7516 201.599 44.5129 201.599 44.2741Z" fill="#151515"/>
<path d="M86.6953 33.0524C86.6953 32.2167 86.8145 31.5004 87.1721 30.7841C87.4105 30.0678 87.7682 29.5903 88.245 29.1128C88.7218 28.6352 89.1986 28.2771 89.7947 28.0383C90.3907 27.7996 90.9867 27.6802 91.5827 27.6802C92.5364 27.6802 93.2516 27.9189 93.9668 28.2771C94.5629 28.6352 95.0397 29.1128 95.3973 29.5903C95.7549 30.1872 95.9933 30.7841 96.1125 31.381C96.2317 31.9779 96.2317 32.6942 96.1125 33.2911H87.1721C87.1721 34.1268 87.2913 34.8431 87.649 35.3206C87.8874 35.9175 88.3642 36.395 88.841 36.7532C89.3178 37.1113 89.7947 37.3501 90.3907 37.5889C90.9867 37.7082 91.5827 37.8276 92.298 37.8276C92.894 37.8276 93.49 37.7082 94.086 37.5889C94.6821 37.4695 95.1589 37.2307 95.6357 36.992V37.4695C95.1589 37.7082 94.6821 37.947 94.086 38.0664C93.49 38.1858 92.894 38.3052 92.298 38.3052C91.5827 38.3052 90.8675 38.1858 90.2715 37.947C89.5562 37.7082 89.0794 37.4695 88.4834 36.992C88.0066 36.5144 87.5297 36.0369 87.2913 35.3206C86.8145 34.7237 86.6953 33.888 86.6953 33.0524ZM95.7549 32.8136C95.7549 32.3361 95.7549 31.8585 95.6357 31.2616C95.5165 30.6647 95.2781 30.1872 95.0397 29.7097C94.6821 29.2321 94.3244 28.874 93.7284 28.5158C93.1324 28.1577 92.5364 28.0383 91.7019 28.0383C91.1059 28.0383 90.6291 28.1577 90.0331 28.3965C89.5562 28.6352 89.0794 28.874 88.6026 29.2321C88.245 29.5903 87.8874 30.0678 87.649 30.6647C87.4105 31.2616 87.2913 31.8585 87.2913 32.6942H95.7549V32.8136Z" fill="#151515"/>
<path d="M92.1755 39.4994C91.3411 39.4994 90.5066 39.38 89.7914 39.1413C88.957 38.9025 88.2417 38.5444 87.6457 37.9475C87.0497 37.4699 86.4536 36.7536 86.096 35.918C85.7384 35.0823 85.5 34.1272 85.5 33.0528C85.5 32.0978 85.6192 31.1427 85.9768 30.307C86.3344 29.4714 86.8113 28.8745 87.4073 28.2775C88.0033 27.6806 88.5993 27.3225 89.3146 26.9643C90.0298 26.7256 90.745 26.4868 91.5795 26.4868C92.6523 26.4868 93.7252 26.7256 94.4404 27.2031C95.2748 27.6806 95.8709 28.2775 96.3477 28.9938C96.8245 29.7101 97.0629 30.4264 97.1821 31.2621C97.3013 32.0978 97.3013 32.814 97.1821 33.5303C97.0629 34.1272 96.5861 34.4854 95.9901 34.4854H88.3609C88.3609 34.6048 88.4801 34.7242 88.4801 34.8435C88.7185 35.3211 88.957 35.5598 89.3146 35.918C89.6722 36.1567 90.0298 36.3955 90.5066 36.5149C91.4603 36.7536 92.5331 36.7536 93.4867 36.5149C93.9636 36.3955 94.3212 36.2761 94.6788 36.0374C95.0364 35.7986 95.5132 35.7986 95.8709 36.0374C96.2285 36.2761 96.4669 36.6343 96.4669 37.1118V37.5893C96.4669 37.9475 96.2285 38.425 95.8709 38.5444C95.2748 38.9025 94.6788 39.1413 93.9636 39.2607C93.606 39.38 92.8907 39.4994 92.1755 39.4994ZM88.4801 31.6202H94.4404V31.5008C94.3212 31.1427 94.202 30.7846 93.9636 30.4264C93.7252 30.0683 93.4867 29.8295 93.0099 29.5907C92.6523 29.352 92.1755 29.2326 91.5795 29.2326C91.1026 29.2326 90.745 29.352 90.3874 29.4714C90.0298 29.5907 89.6722 29.8295 89.3146 30.0683C89.0762 30.307 88.8378 30.6652 88.5993 31.1427C88.5993 31.3815 88.5993 31.5008 88.4801 31.6202Z" fill="#151515"/>
<path d="M100.639 29.351C100.878 29.1123 101.235 28.7541 101.593 28.5154C101.95 28.2766 102.308 28.0378 102.785 27.9184C103.262 27.7991 103.738 27.6797 104.334 27.6797C104.931 27.6797 105.407 27.7991 105.884 27.9184C106.361 28.1572 106.838 28.396 107.076 28.7541C107.434 29.1123 107.672 29.5898 107.911 30.0673C108.149 30.5448 108.268 31.1418 108.268 31.858V38.0659H107.791V31.858C107.791 31.2611 107.672 30.7836 107.553 30.3061C107.434 29.8286 107.076 29.4704 106.838 29.1123C106.48 28.7541 106.123 28.5154 105.765 28.396C105.288 28.2766 104.931 28.1572 104.454 28.1572C103.977 28.1572 103.381 28.2766 103.023 28.396C102.546 28.5154 102.189 28.7541 101.831 28.9929C101.474 29.2316 101.116 29.5898 100.878 29.8286C100.639 30.1867 100.401 30.4255 100.282 30.7836V37.9465H99.8047V27.7991H100.282V30.0673C100.162 29.9479 100.401 29.7092 100.639 29.351Z" fill="#151515"/>
<path d="M108.267 39.2602H107.79C107.194 39.2602 106.598 38.7827 106.598 38.0664V31.8585C106.598 31.381 106.479 31.0229 106.36 30.6647C106.241 30.3066 106.121 30.0678 105.883 29.9484C105.645 29.7097 105.406 29.5903 105.168 29.4709C104.572 29.2321 103.737 29.2321 103.141 29.4709C102.784 29.5903 102.426 29.7097 102.188 29.9484C101.949 30.1872 101.711 30.426 101.472 30.6647C101.353 30.9035 101.234 31.0229 101.115 31.1422V37.947C101.115 38.5439 100.638 39.1408 99.9228 39.1408H99.446C98.8499 39.1408 98.2539 38.6633 98.2539 37.947V27.7996C98.2539 27.2026 98.7307 26.6057 99.446 26.6057H99.9228C100.4 26.6057 100.876 26.9639 100.996 27.322C101.353 27.0833 101.83 26.8445 102.307 26.7251C103.499 26.367 104.929 26.2476 106.121 26.7251C106.717 26.9639 107.313 27.322 107.79 27.7996C108.267 28.2771 108.625 28.874 108.863 29.4709C109.102 30.0678 109.221 30.9035 109.221 31.6198V37.8276C109.34 38.7827 108.863 39.2602 108.267 39.2602Z" fill="#151515"/>
<path d="M111.484 38.0664V27.9189H112.08V38.0664H111.484Z" fill="#151515"/>
<path d="M112.077 39.2603H111.6C111.004 39.2603 110.408 38.7828 110.408 38.0665V27.919C110.408 27.3221 110.885 26.7252 111.6 26.7252H112.077C112.673 26.7252 113.269 27.2028 113.269 27.919V38.0665C113.269 38.7828 112.673 39.2603 112.077 39.2603ZM111.839 26.1283C111.481 26.1283 111.123 26.0089 110.885 25.7702C110.527 25.5314 110.289 25.0539 110.289 24.5764C110.289 24.0988 110.527 23.6213 110.885 23.3825C111.481 22.905 112.435 22.905 113.031 23.3825C113.388 23.6213 113.627 24.0988 113.627 24.5764C113.627 25.0539 113.388 25.5314 113.031 25.7702C112.554 26.0089 112.196 26.1283 111.839 26.1283ZM124.713 26.1283C124.355 26.1283 123.998 25.8896 123.759 25.6508C123.402 25.2926 123.282 24.8151 123.282 24.3376C123.282 23.8601 123.521 23.3825 123.998 23.1438C124.594 22.6662 125.547 22.7856 126.024 23.3825C126.382 23.7407 126.501 24.2182 126.501 24.6957C126.501 25.1733 126.024 26.964 125.547 27.2028C125.309 27.3221 125.07 26.1283 124.713 26.1283Z" fill="#151515"/>
<path d="M115.42 30.3061C115.42 29.8286 115.539 29.4704 115.778 29.1123C116.016 28.7541 116.254 28.5154 116.612 28.2766C116.97 28.0378 117.327 27.9184 117.804 27.7991C118.281 27.6797 118.639 27.6797 119.115 27.6797C119.711 27.6797 120.427 27.7991 121.023 27.9184C121.619 28.0378 122.215 28.2766 122.572 28.5154V28.9929C122.215 28.7541 121.619 28.5154 121.023 28.396C120.427 28.2766 119.831 28.1572 119.115 28.1572C118.758 28.1572 118.4 28.1572 118.043 28.2766C117.685 28.396 117.327 28.5154 117.089 28.6347C116.85 28.7541 116.612 28.9929 116.374 29.2316C116.254 29.4704 116.135 29.8286 116.135 30.1867C116.135 30.7836 116.254 31.1418 116.612 31.4999C116.97 31.858 117.446 32.0968 117.923 32.2162C118.4 32.455 118.996 32.5743 119.592 32.6937C120.188 32.8131 120.784 33.0519 121.261 33.1712C121.738 33.41 122.215 33.6488 122.572 34.0069C122.93 34.3651 123.049 34.8426 123.049 35.4395C123.049 35.917 122.93 36.2752 122.692 36.6333C122.453 36.9915 122.215 37.2302 121.857 37.469C121.499 37.7078 121.142 37.8271 120.665 37.9465C120.188 38.0659 119.711 38.0659 119.235 38.0659C118.877 38.0659 118.519 38.0659 118.162 37.9465C117.804 37.9465 117.446 37.8271 117.089 37.7078C116.731 37.5884 116.374 37.469 116.135 37.3496C115.778 37.2302 115.539 37.1108 115.301 36.8721V36.3946C115.539 36.5139 115.778 36.7527 116.135 36.8721C116.493 36.9915 116.731 37.1108 117.089 37.2302C117.446 37.3496 117.804 37.3496 118.162 37.469C118.519 37.469 118.877 37.5884 119.235 37.5884C119.711 37.5884 120.069 37.5884 120.546 37.469C120.903 37.3496 121.261 37.2302 121.619 37.1108C121.976 36.9915 122.215 36.7527 122.334 36.5139C122.453 36.2752 122.572 35.917 122.572 35.5589C122.572 34.962 122.453 34.6038 122.095 34.2457C121.738 33.8875 121.261 33.6488 120.784 33.5294C120.307 33.2906 119.711 33.1712 119.115 33.0519C118.519 32.9325 117.923 32.6937 117.446 32.455C116.97 32.2162 116.493 31.9774 116.135 31.6193C115.658 31.3805 115.42 30.903 115.42 30.3061Z" fill="#151515"/>
<path d="M119.233 39.4993C118.876 39.4993 118.399 39.4993 118.041 39.38C117.684 39.38 117.207 39.2606 116.849 39.1412C116.491 39.0218 116.015 38.9024 115.657 38.783C115.299 38.6637 114.942 38.4249 114.703 38.1861C114.346 37.9474 114.227 37.5892 114.227 37.2311V36.7536C114.227 36.276 114.465 35.9179 114.823 35.6791C115.18 35.4404 115.657 35.4404 116.015 35.6791C116.253 35.7985 116.372 35.9179 116.611 36.0373C116.849 36.1566 117.087 36.276 117.445 36.276C117.684 36.3954 118.041 36.3954 118.28 36.5148C118.995 36.6342 119.591 36.6342 120.187 36.5148C120.425 36.3954 120.664 36.3954 120.902 36.276C121.021 36.1566 121.14 36.1566 121.26 36.0373C121.26 36.0373 121.379 35.9179 121.379 35.6791C121.379 35.4404 121.26 35.321 121.26 35.321C121.021 35.0822 120.664 34.9628 120.306 34.8434C119.829 34.7241 119.352 34.4853 118.756 34.3659C118.041 34.2465 117.445 34.0078 116.849 33.769C116.134 33.5302 115.657 33.0527 115.18 32.5752C114.584 31.9783 114.346 31.262 114.346 30.3069C114.346 29.5906 114.465 28.9937 114.823 28.5162C115.18 28.0387 115.538 27.6805 116.015 27.3224C116.491 27.0836 116.968 26.8449 117.564 26.7255C118.756 26.4867 120.068 26.4867 121.26 26.8449C121.975 27.0836 122.571 27.3224 123.167 27.5612C123.525 27.7999 123.763 28.1581 123.763 28.5162V28.9937C123.763 29.4713 123.525 29.8294 123.167 30.0682C122.809 30.3069 122.333 30.3069 121.975 30.0682C121.617 29.8294 121.26 29.71 120.783 29.5906C119.948 29.3519 119.114 29.3519 118.399 29.4713C118.16 29.4713 117.922 29.5906 117.803 29.71C117.684 29.8294 117.564 29.8294 117.445 29.9488C117.445 30.0682 117.326 30.1876 117.326 30.3069C117.326 30.6651 117.445 30.6651 117.445 30.7845C117.684 31.0232 118.041 31.1426 118.399 31.262C118.876 31.3814 119.352 31.6201 119.948 31.7395C120.664 31.8589 121.26 32.0977 121.856 32.3364C122.571 32.5752 123.048 32.9333 123.525 33.4109C124.121 34.0078 124.359 34.7241 124.359 35.6791C124.359 36.3954 124.24 36.9923 123.882 37.4698C123.525 37.9474 123.167 38.3055 122.69 38.6637C122.213 38.9024 121.736 39.1412 121.14 39.2606C120.306 39.38 119.829 39.4993 119.233 39.4993Z" fill="#151515"/>
<path d="M148.559 33.0528C148.559 32.0978 148.678 31.2621 149.036 30.6652C149.394 29.9489 149.751 29.4714 150.347 28.9939C150.824 28.5163 151.42 28.2776 152.135 28.0388C152.731 27.8 153.446 27.6807 154.043 27.6807C154.519 27.6807 154.996 27.8 155.592 27.9194C156.069 28.0388 156.546 28.2776 157.023 28.5163V28.9939C156.665 28.7551 156.188 28.5163 155.592 28.397C155.115 28.2776 154.519 28.1582 154.043 28.1582C153.446 28.1582 152.85 28.2776 152.254 28.397C151.658 28.6357 151.182 28.8745 150.705 29.2326C150.228 29.5908 149.87 30.1877 149.513 30.7846C149.274 31.3815 149.036 32.0978 149.036 33.0528C149.036 33.8885 149.155 34.6048 149.394 35.2017C149.632 35.7986 149.99 36.2762 150.466 36.6343C150.943 36.9924 151.42 37.3506 152.016 37.47C152.612 37.7087 153.208 37.7087 153.804 37.7087C154.4 37.7087 154.996 37.5893 155.473 37.47C156.069 37.3506 156.546 37.1118 157.023 36.8731V37.3506C156.546 37.5893 155.95 37.8281 155.473 37.9475C154.877 38.0669 154.281 38.1863 153.685 38.1863C153.089 38.1863 152.374 38.0669 151.778 37.8281C151.182 37.5894 150.586 37.3506 150.109 36.8731C149.632 36.3955 149.274 35.918 148.917 35.2017C148.678 34.7242 148.559 34.0079 148.559 33.0528Z" fill="#151515"/>
<path d="M153.685 39.4994C152.97 39.4994 152.136 39.38 151.42 39.1412C150.705 38.9024 149.99 38.5443 149.394 37.9474C148.798 37.4699 148.321 36.7536 147.963 35.9179C147.606 35.0822 147.367 34.1272 147.367 33.0527C147.367 31.9783 147.606 30.9039 147.963 30.0682C148.321 29.2325 148.917 28.5162 149.513 28.0387C150.109 27.5612 150.824 27.0837 151.659 26.8449C152.97 26.3674 154.401 26.3674 155.831 26.7255C156.427 26.8449 157.142 27.203 157.619 27.5612C157.977 27.7999 158.096 28.1581 158.096 28.5162V28.9938C158.096 29.4713 157.857 29.8294 157.5 30.0682C157.142 30.307 156.665 30.1876 156.308 29.9488C156.069 29.7101 155.712 29.5907 155.235 29.4713C154.281 29.2325 153.447 29.2325 152.612 29.4713C152.136 29.5907 151.778 29.8294 151.42 30.1876C151.063 30.4263 150.824 30.7845 150.586 31.262C150.348 31.7395 150.228 32.3364 150.228 32.9334C150.228 33.5303 150.348 34.1272 150.586 34.6047C150.824 35.0822 151.063 35.4404 151.301 35.6791C151.659 35.9179 152.016 36.1567 152.374 36.276C153.208 36.6342 154.281 36.5148 155.235 36.276C155.712 36.1567 156.069 36.0373 156.427 35.7985C156.785 35.5598 157.261 35.5598 157.619 35.7985C157.977 36.0373 158.215 36.3954 158.215 36.873V37.3505C158.215 37.828 157.977 38.1862 157.619 38.4249C157.023 38.7831 156.427 39.0218 155.712 39.1412C155.116 39.38 154.401 39.4994 153.685 39.4994Z" fill="#151515"/>
<path d="M160.834 23.2627V30.1868C160.953 29.9481 161.192 29.7093 161.43 29.3512C161.669 29.1124 162.026 28.7543 162.384 28.5155C162.742 28.2767 163.099 28.038 163.576 27.9186C164.053 27.7992 164.53 27.6798 165.006 27.6798C165.602 27.6798 166.079 27.7992 166.556 27.9186C167.033 28.1573 167.51 28.3961 167.748 28.7543C168.106 29.1124 168.344 29.5899 168.583 30.0675C168.821 30.545 168.94 31.1419 168.94 31.8582V38.066H168.463V31.8582C168.463 31.2613 168.344 30.7837 168.225 30.3062C168.106 29.8287 167.748 29.4705 167.51 29.1124C167.152 28.7543 166.795 28.5155 166.437 28.3961C165.96 28.2767 165.602 28.1573 165.126 28.1573C164.649 28.1573 164.053 28.2767 163.695 28.3961C163.218 28.5155 162.861 28.7543 162.503 28.993C162.146 29.2318 161.788 29.5899 161.55 29.8287C161.311 30.1868 161.073 30.4256 160.953 30.7837V37.9467H160.477V23.2627H160.834Z" fill="#151515"/>
<path d="M169.06 39.2598H168.583C167.987 39.2598 167.391 38.7823 167.391 38.066V31.8582C167.391 31.3806 167.272 31.0225 167.153 30.6643C167.034 30.3062 166.914 30.0674 166.676 29.948C166.438 29.7093 166.199 29.5899 165.961 29.4705C165.365 29.2318 164.53 29.2318 163.934 29.4705C163.577 29.5899 163.219 29.7093 162.981 29.948C162.742 30.1868 162.504 30.4256 162.265 30.6643C162.146 30.9031 162.027 31.0225 161.908 31.1419V37.9466C161.908 38.5435 161.431 39.1404 160.716 39.1404H160.239C159.643 39.1404 159.047 38.6629 159.047 37.9466V23.2627C159.047 22.6658 159.524 22.0688 160.239 22.0688H160.716C161.312 22.0688 161.908 22.5464 161.908 23.2627V27.441C162.265 27.2023 162.742 26.9635 163.219 26.8441C164.411 26.486 165.842 26.486 167.034 26.8441C167.63 27.0829 168.226 27.441 168.702 27.9186C169.179 28.3961 169.537 28.993 169.775 29.5899C170.014 30.1868 170.133 31.0225 170.133 31.7388V37.9466C170.133 38.7823 169.656 39.2598 169.06 39.2598Z" fill="#151515"/>
<path d="M172.281 33.0524C172.281 32.2167 172.4 31.5004 172.758 30.7841C172.996 30.1872 173.473 29.5903 173.95 29.1128C174.427 28.6352 175.023 28.2771 175.619 28.0383C176.215 27.7996 176.93 27.6802 177.526 27.6802C178.241 27.6802 178.838 27.7996 179.553 28.0383C180.149 28.2771 180.745 28.6352 181.222 29.1128C181.698 29.5903 182.056 30.0678 182.414 30.7841C182.652 31.381 182.89 32.2167 182.89 33.0524C182.89 33.888 182.771 34.6043 182.414 35.3206C182.175 35.9175 181.698 36.5144 181.222 36.992C180.745 37.4695 180.149 37.8276 179.553 38.0664C178.957 38.3052 178.241 38.4245 177.526 38.4245C176.811 38.4245 176.215 38.3052 175.619 38.0664C175.023 37.8276 174.427 37.4695 173.95 36.992C173.473 36.5144 173.116 36.0369 172.758 35.3206C172.52 34.6043 172.281 33.888 172.281 33.0524ZM182.294 33.0524C182.294 32.3361 182.175 31.6198 181.937 31.0229C181.698 30.426 181.341 29.9484 180.864 29.4709C180.387 29.1128 179.91 28.7546 179.314 28.5158C178.718 28.2771 178.122 28.1577 177.526 28.1577C176.93 28.1577 176.334 28.2771 175.738 28.5158C175.142 28.7546 174.665 28.9934 174.189 29.4709C173.712 29.829 173.354 30.426 173.116 31.0229C172.877 31.6198 172.758 32.3361 172.758 33.0524C172.758 33.7686 172.877 34.4849 173.116 35.0818C173.354 35.6788 173.712 36.1563 174.189 36.6338C174.665 36.992 175.142 37.3501 175.738 37.5889C176.334 37.8276 176.93 37.947 177.526 37.947C178.122 37.947 178.718 37.8276 179.314 37.5889C179.91 37.3501 180.387 37.1113 180.864 36.6338C181.341 36.2757 181.698 35.6788 181.937 35.0818C182.175 34.4849 182.294 33.7686 182.294 33.0524Z" fill="#151515"/>
<path d="M177.525 39.4991C176.69 39.4991 175.975 39.3797 175.141 39.0216C174.306 38.7828 173.71 38.3053 173.114 37.7084C172.518 37.1115 172.041 36.5146 171.684 35.6789C171.326 34.8432 171.207 34.0076 171.207 32.9331C171.207 31.9781 171.445 31.023 171.684 30.1873C172.041 29.3517 172.518 28.7548 173.114 28.1579C173.71 27.5609 174.426 27.2028 175.141 26.8447C176.69 26.2477 178.359 26.2477 179.909 26.8447C180.624 27.0834 181.339 27.5609 181.935 28.1579C182.532 28.7548 183.008 29.3517 183.366 30.1873C183.724 31.023 183.843 31.8587 183.843 32.9331C183.843 33.8882 183.604 34.8432 183.366 35.6789C183.008 36.5146 182.532 37.1115 181.935 37.7084C181.339 38.3053 180.624 38.6634 179.909 39.0216C179.194 39.2604 178.359 39.4991 177.525 39.4991ZM177.525 29.3517C177.048 29.3517 176.571 29.4711 176.094 29.5904C175.618 29.7098 175.26 29.9486 175.022 30.3067C174.664 30.6649 174.426 31.023 174.306 31.3812C174.068 31.8587 174.068 32.3362 174.068 32.9331C174.068 33.53 174.187 34.1269 174.306 34.4851C174.545 34.9626 174.783 35.3208 175.022 35.5595C175.379 35.9177 175.737 36.037 176.094 36.2758C176.929 36.634 178.002 36.634 178.836 36.2758C179.313 36.1564 179.671 35.9177 179.909 35.5595C180.267 35.2014 180.505 34.8432 180.624 34.4851C180.863 34.0076 180.863 33.53 180.863 32.9331C180.863 32.3362 180.743 31.7393 180.624 31.3812C180.386 30.9036 180.147 30.5455 179.909 30.3067C179.551 29.9486 179.194 29.8292 178.836 29.5904C178.479 29.4711 178.002 29.3517 177.525 29.3517Z" fill="#151515"/>
<path d="M186.109 33.0524C186.109 32.2167 186.229 31.5004 186.586 30.7841C186.825 30.1872 187.301 29.5903 187.778 29.1128C188.255 28.6352 188.851 28.2771 189.447 28.0383C190.043 27.7996 190.758 27.6802 191.354 27.6802C192.07 27.6802 192.666 27.7996 193.381 28.0383C193.977 28.2771 194.573 28.6352 195.05 29.1128C195.527 29.5903 195.884 30.0678 196.242 30.7841C196.48 31.381 196.719 32.2167 196.719 33.0524C196.719 33.888 196.599 34.6043 196.242 35.3206C196.003 35.9175 195.527 36.5144 195.05 36.992C194.573 37.4695 193.977 37.8276 193.381 38.0664C192.785 38.3052 192.07 38.4245 191.354 38.4245C190.639 38.4245 190.043 38.3052 189.447 38.0664C188.851 37.8276 188.255 37.4695 187.778 36.992C187.301 36.5144 186.944 36.0369 186.586 35.3206C186.229 34.6043 186.109 33.888 186.109 33.0524ZM196.003 33.0524C196.003 32.3361 195.884 31.6198 195.646 31.0229C195.407 30.426 195.05 29.9484 194.573 29.4709C194.096 29.1128 193.619 28.7546 193.023 28.5158C192.427 28.2771 191.831 28.1577 191.235 28.1577C190.639 28.1577 190.043 28.2771 189.447 28.5158C188.851 28.7546 188.374 28.9934 187.897 29.4709C187.421 29.829 187.063 30.426 186.825 31.0229C186.586 31.6198 186.467 32.3361 186.467 33.0524C186.467 33.7686 186.586 34.4849 186.825 35.0818C187.063 35.6788 187.421 36.1563 187.897 36.6338C188.374 36.992 188.851 37.3501 189.447 37.5889C190.043 37.8276 190.639 37.947 191.235 37.947C191.831 37.947 192.427 37.8276 193.023 37.5889C193.619 37.3501 194.096 37.1113 194.573 36.6338C195.05 36.2757 195.407 35.6788 195.646 35.0818C195.884 34.4849 196.003 33.7686 196.003 33.0524Z" fill="#151515"/>
<path d="M191.349 39.4991C190.515 39.4991 189.799 39.3797 188.965 39.0216C188.131 38.7828 187.535 38.3053 186.939 37.7084C186.343 37.1115 185.866 36.5146 185.508 35.6789C185.15 34.8432 185.031 34.0076 185.031 32.9331C185.031 31.9781 185.27 31.023 185.508 30.1873C185.866 29.3517 186.343 28.7548 186.939 28.1579C187.535 27.5609 188.25 27.2028 188.965 26.8447C190.515 26.2477 192.184 26.2477 193.733 26.8447C194.448 27.0834 195.164 27.5609 195.76 28.1579C196.356 28.7548 196.833 29.3517 197.19 30.1873C197.548 31.023 197.667 31.8587 197.667 32.9331C197.667 33.8882 197.429 34.8432 197.19 35.6789C196.833 36.5146 196.356 37.1115 195.76 37.7084C195.164 38.3053 194.448 38.6634 193.733 39.0216C192.899 39.2604 192.184 39.4991 191.349 39.4991ZM191.349 29.3517C190.872 29.3517 190.395 29.4711 189.919 29.5904C189.442 29.7098 189.084 29.9486 188.846 30.3067C188.488 30.6649 188.25 31.023 188.131 31.3812C187.892 31.8587 187.892 32.3362 187.892 32.9331C187.892 33.53 188.011 34.1269 188.131 34.4851C188.369 34.9626 188.607 35.3208 188.846 35.5595C189.203 35.9177 189.561 36.037 189.919 36.2758C190.753 36.634 191.826 36.634 192.66 36.2758C193.137 36.1564 193.495 35.9177 193.733 35.5595C194.091 35.2014 194.329 34.8432 194.448 34.4851C194.687 34.0076 194.687 33.53 194.687 32.9331C194.687 32.3362 194.568 31.7393 194.448 31.3812C194.21 30.9036 193.972 30.5455 193.733 30.3067C193.376 29.9486 193.018 29.8292 192.66 29.5904C192.303 29.4711 191.826 29.3517 191.349 29.3517Z" fill="#151515"/>
<path d="M200.414 22.6665V38.0668H199.938V22.6665H200.414Z" fill="#151515"/>
<path d="M200.415 39.2605H199.938C199.342 39.2605 198.746 38.783 198.746 38.0667V22.6665C198.746 22.0696 199.223 21.4727 199.938 21.4727H200.415C201.011 21.4727 201.607 21.9502 201.607 22.6665V38.0667C201.488 38.783 201.011 39.2605 200.415 39.2605Z" fill="#151515"/>
</g>
<defs>
<clipPath id="clip0_1_474">
<rect width="202" height="60" fill="white"/>
</clipPath>
</defs>
</svg>
