<svg width="48" height="49" viewBox="0 0 48 49" fill="none" xmlns="http://www.w3.org/2000/svg">
<path d="M0.00963211 48.3437L3.25443 36.4205C1.11636 32.7554 -0.00693751 28.5869 3.22374e-05 24.3437C3.22374e-05 11.0885 10.7448 0.34375 24 0.34375C37.2552 0.34375 48 11.0885 48 24.3437C48 37.5989 37.2552 48.3437 24 48.3437C19.7587 48.3506 15.592 47.2281 11.928 45.0917L0.00963211 48.3437ZM15.3384 13.0829C15.0285 13.1022 14.7256 13.1838 14.448 13.3229C14.1877 13.4704 13.95 13.6547 13.7424 13.8701C13.4544 14.1413 13.2912 14.3765 13.116 14.6045C12.229 15.7589 11.7519 17.1759 11.76 18.6317C11.7648 19.8077 12.072 20.9525 12.552 22.0229C13.5336 24.1877 15.1488 26.4797 17.2824 28.6037C17.796 29.1149 18.2976 29.6285 18.8376 30.1061C21.4858 32.4376 24.6414 34.119 28.0536 35.0165L29.4192 35.2253C29.8632 35.2493 30.3072 35.2157 30.7536 35.1941C31.4526 35.158 32.1351 34.9688 32.7528 34.6397C33.0671 34.4778 33.3738 34.3017 33.672 34.1117C33.672 34.1117 33.7752 34.0445 33.972 33.8957C34.296 33.6557 34.4952 33.4853 34.764 33.2045C34.9632 32.9981 35.136 32.7557 35.268 32.4797C35.4552 32.0885 35.6424 31.3421 35.7192 30.7205C35.7768 30.2453 35.76 29.9861 35.7528 29.8253C35.7432 29.5685 35.5296 29.3021 35.2968 29.1893L33.9 28.5629C33.9 28.5629 31.812 27.6533 30.5376 27.0725C30.4032 27.014 30.2592 26.9806 30.1128 26.9741C29.9486 26.9573 29.7827 26.9757 29.6262 27.0283C29.4697 27.0809 29.3263 27.1663 29.2056 27.2789V27.2741C29.1936 27.2741 29.0328 27.4109 27.2976 29.5133C27.198 29.6472 27.0608 29.7483 26.9035 29.8039C26.7462 29.8594 26.576 29.8669 26.4144 29.8253C26.258 29.7835 26.1048 29.7306 25.956 29.6669C25.6584 29.5421 25.5552 29.4941 25.3512 29.4053L25.3392 29.4005C23.9662 28.8011 22.695 27.9914 21.5712 27.0005C21.2688 26.7365 20.988 26.4485 20.7 26.1701C19.7558 25.2659 18.9329 24.243 18.252 23.1269L18.1104 22.8989C18.0087 22.7457 17.9265 22.5805 17.8656 22.4069C17.7744 22.0541 18.012 21.7709 18.012 21.7709C18.012 21.7709 18.5952 21.1325 18.8664 20.7869C19.0922 20.4997 19.3029 20.2009 19.4976 19.8917C19.7808 19.4357 19.8696 18.9677 19.7208 18.6053C19.0488 16.9637 18.3528 15.3293 17.6376 13.7069C17.496 13.3853 17.076 13.1549 16.6944 13.1093C16.5648 13.0949 16.4352 13.0805 16.3056 13.0709C15.9833 13.0549 15.6603 13.0581 15.3384 13.0805V13.0829Z" fill="#FFCD29"/>
</svg>
