<svg width="60" height="60" viewBox="0 0 60 60" fill="none" xmlns="http://www.w3.org/2000/svg">
<path d="M59.6844 0.813054C59.6599 0.694496 59.6022 0.585372 59.518 0.498475C59.4338 0.411577 59.3266 0.350507 59.2089 0.322425C51.3646 -1.5972 33.2398 5.24347 23.42 15.0681C21.6685 16.807 20.0718 18.6953 18.648 20.7117C15.6199 20.4436 12.5917 20.6675 10.0109 21.7935C2.72905 25.0014 0.608926 33.3716 0.0182924 36.9722C-0.0152094 37.1693 -0.00257253 37.3714 0.0552088 37.5628C0.11299 37.7542 0.21434 37.9295 0.351288 38.075C0.488236 38.2205 0.657047 38.3323 0.844443 38.4014C1.03184 38.4706 1.23271 38.4953 1.43126 38.4736L13.1247 37.1827C13.1331 38.0651 13.1863 38.9465 13.2841 39.8235C13.343 40.4325 13.6131 41.0017 14.0475 41.4321L18.5757 45.9537C19.0062 46.388 19.5746 46.6582 20.1829 46.7178C21.0542 46.8153 21.9299 46.8686 22.8066 46.8773L21.5235 58.5666C21.5021 58.7653 21.527 58.9662 21.5962 59.1536C21.6654 59.3411 21.777 59.5099 21.9223 59.6469C22.0676 59.7839 22.2427 59.8854 22.4338 59.9433C22.6248 60.0013 22.8267 60.0141 23.0235 59.9809C26.6142 59.4044 34.9916 57.2824 38.1778 49.994C39.3028 47.4108 39.5332 44.3947 39.2733 41.3785C41.2928 39.9533 43.1843 38.3547 44.9266 36.6009C54.7771 26.791 61.5728 9.05456 59.6844 0.813054ZM35.0987 24.8982C34.1992 23.9984 33.5866 22.8519 33.3382 21.6036C33.0898 20.3554 33.2168 19.0614 33.7033 17.8854C34.1897 16.7094 35.0137 15.7042 36.071 14.997C37.1283 14.2898 38.3713 13.9123 39.643 13.9123C40.9146 13.9123 42.1577 14.2898 43.215 14.997C44.2723 15.7042 45.0963 16.7094 45.5827 17.8854C46.0692 19.0614 46.1962 20.3554 45.9478 21.6036C45.6994 22.8519 45.0867 23.9984 44.1873 24.8982C43.5908 25.496 42.8824 25.9703 42.1027 26.2939C41.3229 26.6175 40.4871 26.7841 39.643 26.7841C38.7989 26.7841 37.963 26.6175 37.1833 26.2939C36.4035 25.9703 35.6952 25.496 35.0987 24.8982Z" fill="white"/>
<path d="M18.227 49.16C17.5016 49.8869 16.338 50.1702 14.9375 50.4125C11.791 50.9487 9.0124 48.2293 9.57764 45.0478C9.79342 43.8417 10.4315 42.151 10.8286 41.7538C10.9154 41.6687 10.9732 41.5584 10.9937 41.4385C11.0143 41.3187 10.9965 41.1954 10.943 41.0862C10.8895 40.977 10.803 40.8875 10.6957 40.8303C10.5885 40.773 10.4659 40.7511 10.3454 40.7675C8.58584 40.9828 6.94885 41.7807 5.69508 43.0341C2.58294 46.1494 2.28906 57.7088 2.28906 57.7088C2.28906 57.7088 13.8534 57.4149 16.9655 54.2996C18.2226 53.0467 19.0214 51.4069 19.2331 49.6446C19.2821 49.0912 18.6083 48.7615 18.227 49.16Z" fill="white"/>
<path d="M18.227 49.16C17.5016 49.8869 16.338 50.1702 14.9375 50.4125C11.791 50.9487 9.0124 48.2293 9.57764 45.0478C9.79342 43.8417 10.4315 42.151 10.8286 41.7538C10.9154 41.6687 10.9732 41.5584 10.9937 41.4385C11.0143 41.3187 10.9965 41.1954 10.943 41.0862C10.8895 40.977 10.803 40.8875 10.6957 40.8303C10.5885 40.773 10.4659 40.7511 10.3454 40.7675C8.58584 40.9828 6.94885 41.7807 5.69508 43.0341C2.58294 46.1494 2.28906 57.7088 2.28906 57.7088C2.28906 57.7088 13.8534 57.4149 16.9655 54.2996C18.2226 53.0467 19.0214 51.4069 19.2331 49.6446C19.2821 49.0912 18.6083 48.7615 18.227 49.16Z" fill="#028DFA"/>
</svg>
