<svg width="51" height="52" viewBox="0 0 51 52" fill="none" xmlns="http://www.w3.org/2000/svg">
<path d="M25.4995 1.36377C11.9794 1.36377 1.01953 12.3237 1.01953 25.8438C1.01953 39.3639 11.9794 50.3238 25.4995 50.3238C39.0196 50.3238 49.9795 39.3639 49.9795 25.8438C49.9795 12.3237 39.0196 1.36377 25.4995 1.36377ZM34.9141 28.9828C34.9141 28.9828 37.0791 31.1197 37.612 32.1117C37.6273 32.1321 37.635 32.1525 37.6401 32.1627C37.8568 32.5273 37.9078 32.8104 37.8007 33.022C37.6222 33.3739 37.0102 33.5473 36.8011 33.5626H32.9761C32.7109 33.5626 32.155 33.4938 31.4818 33.0297C30.9642 32.6676 30.4542 32.0734 29.9569 31.4946C29.2149 30.6327 28.5723 29.8881 27.9246 29.8881C27.8423 29.8879 27.7606 29.9008 27.6823 29.9263C27.1927 30.0844 26.5654 30.7831 26.5654 32.6446C26.5654 33.226 26.1064 33.5601 25.7826 33.5601H24.0307C23.434 33.5601 20.3256 33.351 17.5716 30.4465C14.2005 26.8893 11.166 19.7544 11.1405 19.6881C10.9492 19.2265 11.3445 18.9792 11.7754 18.9792H15.6387C16.1538 18.9792 16.3221 19.2928 16.4394 19.5708C16.5771 19.8946 17.082 21.1824 17.9107 22.6308C19.2546 24.9921 20.0782 25.9509 20.7387 25.9509C20.8625 25.9494 20.9842 25.9179 21.0931 25.8591C21.955 25.3797 21.7944 22.3069 21.7561 21.6694C21.7561 21.5496 21.7536 20.295 21.3124 19.6932C20.9962 19.2571 20.4582 19.0914 20.1318 19.0302C20.2639 18.8479 20.4379 18.7001 20.6392 18.5992C21.2308 18.3034 22.2967 18.2601 23.355 18.2601H23.944C25.0915 18.2754 25.3873 18.3493 25.803 18.4539C26.6445 18.6553 26.6623 19.1985 26.5884 21.0574C26.5654 21.5853 26.5425 22.182 26.5425 22.8858C26.5425 23.0388 26.5348 23.202 26.5348 23.3754C26.5093 24.3214 26.4787 25.395 27.1468 25.8361C27.234 25.8908 27.3347 25.9199 27.4375 25.9203C27.6696 25.9203 28.3683 25.9203 30.2604 22.6741C30.8439 21.6293 31.351 20.5435 31.7776 19.4254C31.8159 19.3591 31.9281 19.1551 32.0607 19.0761C32.1585 19.0262 32.267 19.0008 32.3769 19.0021H36.9184C37.4131 19.0021 37.7523 19.0761 37.816 19.2673C37.9282 19.5708 37.7956 20.4964 35.7225 23.304L34.7968 24.5254C32.9175 26.9887 32.9175 27.1137 34.9141 28.9828Z" fill="#FFCD29"/>
</svg>
